<svg width="1280" height="720" xmlns="http://www.w3.org/2000/svg" xmlns:xlink="http://www.w3.org/1999/xlink" overflow="hidden"><defs><clipPath id="clip0"><rect x="0" y="0" width="1280" height="720"/></clipPath><clipPath id="clip1"><rect x="1" y="11" width="1279" height="703"/></clipPath><clipPath id="clip2"><rect x="1" y="11" width="1279" height="703"/></clipPath></defs><g clip-path="url(#clip0)"><rect x="0" y="0" width="1280" height="720" fill="#FFFFFF"/><g clip-path="url(#clip1)"><g clip-path="url(#clip2)"><path d="M0 0 1565.95 0 1565.95 791.132 0 791.132Z" fill="#FFFFFF" transform="matrix(1.01445 0 0 1 -158.589 -52.8365)"/><path d="M0 0 1565.95 0 1565.95 791.132 0 791.132Z" fill="#FFFFFF" transform="matrix(1.01445 0 0 1 -158.589 -52.8365)"/><path d="M203.492 704.271 1417.11 704.271 1417.11 59.131 203.492 59.131Z" fill="#FFFFFF" transform="matrix(1.01445 0 0 1 -158.589 -52.8365)"/><path d="M304.627 704.271 304.627 59.131" stroke="#1A1A1A" stroke-width="0.54372" stroke-linejoin="bevel" stroke-miterlimit="1" stroke-dasharray="0.4078 1.2234" stroke-opacity="0.702" fill="none" transform="matrix(1.01445 0 0 1 -158.589 -52.8365)"/><path d="M405.761 704.271 405.761 59.131" stroke="#1A1A1A" stroke-width="0.54372" stroke-linejoin="bevel" stroke-miterlimit="1" stroke-dasharray="0.4078 1.2234" stroke-opacity="0.702" fill="none" transform="matrix(1.01445 0 0 1 -158.589 -52.8365)"/><path d="M506.895 704.271 506.895 59.131" stroke="#1A1A1A" stroke-width="0.54372" stroke-linejoin="bevel" stroke-miterlimit="1" stroke-dasharray="0.4078 1.2234" stroke-opacity="0.702" fill="none" transform="matrix(1.01445 0 0 1 -158.589 -52.8365)"/><path d="M608.03 704.271 608.03 59.131" stroke="#1A1A1A" stroke-width="0.54372" stroke-linejoin="bevel" stroke-miterlimit="1" stroke-dasharray="0.4078 1.2234" stroke-opacity="0.702" fill="none" transform="matrix(1.01445 0 0 1 -158.589 -52.8365)"/><path d="M810.299 704.271 810.299 59.131" stroke="#1A1A1A" stroke-width="0.54372" stroke-linejoin="bevel" stroke-miterlimit="1" stroke-dasharray="0.4078 1.2234" stroke-opacity="0.702" fill="none" transform="matrix(1.01445 0 0 1 -158.589 -52.8365)"/><path d="M911.433 704.271 911.433 59.131" stroke="#1A1A1A" stroke-width="0.54372" stroke-linejoin="bevel" stroke-miterlimit="1" stroke-dasharray="0.4078 1.2234" stroke-opacity="0.702" fill="none" transform="matrix(1.01445 0 0 1 -158.589 -52.8365)"/><path d="M1012.57 704.271 1012.57 59.131" stroke="#1A1A1A" stroke-width="0.54372" stroke-linejoin="bevel" stroke-miterlimit="1" stroke-dasharray="0.4078 1.2234" stroke-opacity="0.702" fill="none" transform="matrix(1.01445 0 0 1 -158.589 -52.8365)"/><path d="M1113.7 704.271 1113.7 59.131" stroke="#1A1A1A" stroke-width="0.54372" stroke-linejoin="bevel" stroke-miterlimit="1" stroke-dasharray="0.4078 1.2234" stroke-opacity="0.702" fill="none" transform="matrix(1.01445 0 0 1 -158.589 -52.8365)"/><path d="M1315.97 704.271 1315.97 59.131" stroke="#1A1A1A" stroke-width="0.54372" stroke-linejoin="bevel" stroke-miterlimit="1" stroke-dasharray="0.4078 1.2234" stroke-opacity="0.702" fill="none" transform="matrix(1.01445 0 0 1 -158.589 -52.8365)"/><path d="M1417.11 704.271 1417.11 59.131" stroke="#1A1A1A" stroke-width="0.54372" stroke-linejoin="bevel" stroke-miterlimit="1" stroke-dasharray="0.4078 1.2234" stroke-opacity="0.702" fill="none" transform="matrix(1.01445 0 0 1 -158.589 -52.8365)"/><path d="M203.492 704.271 203.492 59.131" stroke="#262626" stroke-width="0.54372" stroke-linejoin="round" stroke-miterlimit="10" fill="none" transform="matrix(1.01445 0 0 1 -158.589 -52.8365)"/><path d="M709.164 704.271 709.164 59.131" stroke="#262626" stroke-width="0.54372" stroke-linejoin="round" stroke-miterlimit="10" fill="none" transform="matrix(1.01445 0 0 1 -158.589 -52.8365)"/><path d="M1214.84 704.271 1214.84 59.131" stroke="#262626" stroke-width="0.54372" stroke-linejoin="round" stroke-miterlimit="10" fill="none" transform="matrix(1.01445 0 0 1 -158.589 -52.8365)"/><path d="M1417.11 681.23 203.492 681.23" stroke="#1A1A1A" stroke-width="0.54372" stroke-linejoin="bevel" stroke-miterlimit="1" stroke-dasharray="0.4078 1.2234" stroke-opacity="0.702" fill="none" transform="matrix(1.01445 0 0 1 -158.589 -52.8365)"/><path d="M1417.11 658.189 203.492 658.189" stroke="#1A1A1A" stroke-width="0.54372" stroke-linejoin="bevel" stroke-miterlimit="1" stroke-dasharray="0.4078 1.2234" stroke-opacity="0.702" fill="none" transform="matrix(1.01445 0 0 1 -158.589 -52.8365)"/><path d="M1417.11 635.149 203.492 635.149" stroke="#1A1A1A" stroke-width="0.54372" stroke-linejoin="bevel" stroke-miterlimit="1" stroke-dasharray="0.4078 1.2234" stroke-opacity="0.702" fill="none" transform="matrix(1.01445 0 0 1 -158.589 -52.8365)"/><path d="M1417.11 589.067 203.492 589.067" stroke="#1A1A1A" stroke-width="0.54372" stroke-linejoin="bevel" stroke-miterlimit="1" stroke-dasharray="0.4078 1.2234" stroke-opacity="0.702" fill="none" transform="matrix(1.01445 0 0 1 -158.589 -52.8365)"/><path d="M1417.11 566.026 203.492 566.026" stroke="#1A1A1A" stroke-width="0.54372" stroke-linejoin="bevel" stroke-miterlimit="1" stroke-dasharray="0.4078 1.2234" stroke-opacity="0.702" fill="none" transform="matrix(1.01445 0 0 1 -158.589 -52.8365)"/><path d="M1417.11 542.986 203.492 542.986" stroke="#1A1A1A" stroke-width="0.54372" stroke-linejoin="bevel" stroke-miterlimit="1" stroke-dasharray="0.4078 1.2234" stroke-opacity="0.702" fill="none" transform="matrix(1.01445 0 0 1 -158.589 -52.8365)"/><path d="M1417.11 496.904 203.492 496.904" stroke="#1A1A1A" stroke-width="0.54372" stroke-linejoin="bevel" stroke-miterlimit="1" stroke-dasharray="0.4078 1.2234" stroke-opacity="0.702" fill="none" transform="matrix(1.01445 0 0 1 -158.589 -52.8365)"/><path d="M1417.11 473.864 203.492 473.864" stroke="#1A1A1A" stroke-width="0.54372" stroke-linejoin="bevel" stroke-miterlimit="1" stroke-dasharray="0.4078 1.2234" stroke-opacity="0.702" fill="none" transform="matrix(1.01445 0 0 1 -158.589 -52.8365)"/><path d="M1417.11 450.823 203.492 450.823" stroke="#1A1A1A" stroke-width="0.54372" stroke-linejoin="bevel" stroke-miterlimit="1" stroke-dasharray="0.4078 1.2234" stroke-opacity="0.702" fill="none" transform="matrix(1.01445 0 0 1 -158.589 -52.8365)"/><path d="M1417.11 404.742 203.492 404.742" stroke="#1A1A1A" stroke-width="0.54372" stroke-linejoin="bevel" stroke-miterlimit="1" stroke-dasharray="0.4078 1.2234" stroke-opacity="0.702" fill="none" transform="matrix(1.01445 0 0 1 -158.589 -52.8365)"/><path d="M1417.11 381.701 203.492 381.701" stroke="#1A1A1A" stroke-width="0.54372" stroke-linejoin="bevel" stroke-miterlimit="1" stroke-dasharray="0.4078 1.2234" stroke-opacity="0.702" fill="none" transform="matrix(1.01445 0 0 1 -158.589 -52.8365)"/><path d="M1417.11 358.66 203.492 358.66" stroke="#1A1A1A" stroke-width="0.54372" stroke-linejoin="bevel" stroke-miterlimit="1" stroke-dasharray="0.4078 1.2234" stroke-opacity="0.702" fill="none" transform="matrix(1.01445 0 0 1 -158.589 -52.8365)"/><path d="M1417.11 312.579 203.492 312.579" stroke="#1A1A1A" stroke-width="0.54372" stroke-linejoin="bevel" stroke-miterlimit="1" stroke-dasharray="0.4078 1.2234" stroke-opacity="0.702" fill="none" transform="matrix(1.01445 0 0 1 -158.589 -52.8365)"/><path d="M1417.11 289.538 203.492 289.538" stroke="#1A1A1A" stroke-width="0.54372" stroke-linejoin="bevel" stroke-miterlimit="1" stroke-dasharray="0.4078 1.2234" stroke-opacity="0.702" fill="none" transform="matrix(1.01445 0 0 1 -158.589 -52.8365)"/><path d="M1417.11 266.497 203.492 266.497" stroke="#1A1A1A" stroke-width="0.54372" stroke-linejoin="bevel" stroke-miterlimit="1" stroke-dasharray="0.4078 1.2234" stroke-opacity="0.702" fill="none" transform="matrix(1.01445 0 0 1 -158.589 -52.8365)"/><path d="M1417.11 220.416 203.492 220.416" stroke="#1A1A1A" stroke-width="0.54372" stroke-linejoin="bevel" stroke-miterlimit="1" stroke-dasharray="0.4078 1.2234" stroke-opacity="0.702" fill="none" transform="matrix(1.01445 0 0 1 -158.589 -52.8365)"/><path d="M1417.11 197.375 203.492 197.375" stroke="#1A1A1A" stroke-width="0.54372" stroke-linejoin="bevel" stroke-miterlimit="1" stroke-dasharray="0.4078 1.2234" stroke-opacity="0.702" fill="none" transform="matrix(1.01445 0 0 1 -158.589 -52.8365)"/><path d="M1417.11 174.335 203.492 174.335" stroke="#1A1A1A" stroke-width="0.54372" stroke-linejoin="bevel" stroke-miterlimit="1" stroke-dasharray="0.4078 1.2234" stroke-opacity="0.702" fill="none" transform="matrix(1.01445 0 0 1 -158.589 -52.8365)"/><path d="M1417.11 128.253 203.492 128.253" stroke="#1A1A1A" stroke-width="0.54372" stroke-linejoin="bevel" stroke-miterlimit="1" stroke-dasharray="0.4078 1.2234" stroke-opacity="0.702" fill="none" transform="matrix(1.01445 0 0 1 -158.589 -52.8365)"/><path d="M1417.11 105.212 203.492 105.212" stroke="#1A1A1A" stroke-width="0.54372" stroke-linejoin="bevel" stroke-miterlimit="1" stroke-dasharray="0.4078 1.2234" stroke-opacity="0.702" fill="none" transform="matrix(1.01445 0 0 1 -158.589 -52.8365)"/><path d="M1417.11 82.1717 203.492 82.1717" stroke="#1A1A1A" stroke-width="0.54372" stroke-linejoin="bevel" stroke-miterlimit="1" stroke-dasharray="0.4078 1.2234" stroke-opacity="0.702" fill="none" transform="matrix(1.01445 0 0 1 -158.589 -52.8365)"/><path d="M1417.11 704.271 203.492 704.271" stroke="#262626" stroke-width="0.54372" stroke-linejoin="round" stroke-miterlimit="10" fill="none" transform="matrix(1.01445 0 0 1 -158.589 -52.8365)"/><path d="M1417.11 612.108 203.492 612.108" stroke="#262626" stroke-width="0.54372" stroke-linejoin="round" stroke-miterlimit="10" fill="none" transform="matrix(1.01445 0 0 1 -158.589 -52.8365)"/><path d="M1417.11 519.945 203.492 519.945" stroke="#262626" stroke-width="0.54372" stroke-linejoin="round" stroke-miterlimit="10" fill="none" transform="matrix(1.01445 0 0 1 -158.589 -52.8365)"/><path d="M1417.11 427.782 203.492 427.782" stroke="#262626" stroke-width="0.54372" stroke-linejoin="round" stroke-miterlimit="10" fill="none" transform="matrix(1.01445 0 0 1 -158.589 -52.8365)"/><path d="M1417.11 335.619 203.492 335.619" stroke="#262626" stroke-width="0.54372" stroke-linejoin="round" stroke-miterlimit="10" fill="none" transform="matrix(1.01445 0 0 1 -158.589 -52.8365)"/><path d="M1417.11 243.457 203.492 243.457" stroke="#262626" stroke-width="0.54372" stroke-linejoin="round" stroke-miterlimit="10" fill="none" transform="matrix(1.01445 0 0 1 -158.589 -52.8365)"/><path d="M1417.11 151.294 203.492 151.294" stroke="#262626" stroke-width="0.54372" stroke-linejoin="round" stroke-miterlimit="10" fill="none" transform="matrix(1.01445 0 0 1 -158.589 -52.8365)"/><path d="M1417.11 59.131 203.492 59.131" stroke="#262626" stroke-width="0.54372" stroke-linejoin="round" stroke-miterlimit="10" fill="none" transform="matrix(1.01445 0 0 1 -158.589 -52.8365)"/><path d="M203.492 704.271 1417.11 704.271" stroke="#262626" stroke-width="0.54372" stroke-linecap="square" stroke-linejoin="round" stroke-miterlimit="10" fill="none" transform="matrix(1.01445 0 0 1 -158.589 -52.8365)"/><path d="M203.492 59.131 1417.11 59.131" stroke="#262626" stroke-width="0.54372" stroke-linecap="square" stroke-linejoin="round" stroke-miterlimit="10" fill="none" transform="matrix(1.01445 0 0 1 -158.589 -52.8365)"/><path d="M203.492 704.271 203.492 692.135" stroke="#262626" stroke-width="0.54372" stroke-linecap="square" stroke-linejoin="round" stroke-miterlimit="10" fill="none" transform="matrix(1.01445 0 0 1 -158.589 -52.8365)"/><path d="M709.164 704.271 709.164 692.135" stroke="#262626" stroke-width="0.54372" stroke-linecap="square" stroke-linejoin="round" stroke-miterlimit="10" fill="none" transform="matrix(1.01445 0 0 1 -158.589 -52.8365)"/><path d="M1214.84 704.271 1214.84 692.135" stroke="#262626" stroke-width="0.54372" stroke-linecap="square" stroke-linejoin="round" stroke-miterlimit="10" fill="none" transform="matrix(1.01445 0 0 1 -158.589 -52.8365)"/><path d="M203.492 59.131 203.492 71.2671" stroke="#262626" stroke-width="0.54372" stroke-linecap="square" stroke-linejoin="round" stroke-miterlimit="10" fill="none" transform="matrix(1.01445 0 0 1 -158.589 -52.8365)"/><path d="M709.164 59.131 709.164 71.2671" stroke="#262626" stroke-width="0.54372" stroke-linecap="square" stroke-linejoin="round" stroke-miterlimit="10" fill="none" transform="matrix(1.01445 0 0 1 -158.589 -52.8365)"/><path d="M1214.84 59.131 1214.84 71.2671" stroke="#262626" stroke-width="0.54372" stroke-linecap="square" stroke-linejoin="round" stroke-miterlimit="10" fill="none" transform="matrix(1.01445 0 0 1 -158.589 -52.8365)"/><text fill="#262626" font-family="Arial,Arial_MSFontService,sans-serif" font-weight="400" font-size="53" transform="matrix(0.413694 0 0 0.4078 41.6386 680)">0<tspan font-size="53" x="1210.5" y="0">500</tspan><tspan font-size="53" x="2435.5" y="0">1000</tspan><tspan font-size="59" x="1374" y="73.5655">Time </tspan><tspan font-size="59" x="1519" y="73.5655">[</tspan><tspan font-size="59" x="1535" y="73.5655">ms</tspan><tspan font-size="59" x="1614" y="73.5655">]</tspan></text><path d="M203.492 704.271 203.492 59.131" stroke="#262626" stroke-width="0.54372" stroke-linecap="square" stroke-linejoin="round" stroke-miterlimit="10" fill="none" transform="matrix(1.01445 0 0 1 -158.589 -52.8365)"/><path d="M1417.11 704.271 1417.11 59.131" stroke="#262626" stroke-width="0.54372" stroke-linecap="square" stroke-linejoin="round" stroke-miterlimit="10" fill="none" transform="matrix(1.01445 0 0 1 -158.589 -52.8365)"/><path d="M203.492 704.271 215.628 704.271" stroke="#262626" stroke-width="0.54372" stroke-linecap="square" stroke-linejoin="round" stroke-miterlimit="10" fill="none" transform="matrix(1.01445 0 0 1 -158.589 -52.8365)"/><path d="M203.492 612.108 215.628 612.108" stroke="#262626" stroke-width="0.54372" stroke-linecap="square" stroke-linejoin="round" stroke-miterlimit="10" fill="none" transform="matrix(1.01445 0 0 1 -158.589 -52.8365)"/><path d="M203.492 519.945 215.628 519.945" stroke="#262626" stroke-width="0.54372" stroke-linecap="square" stroke-linejoin="round" stroke-miterlimit="10" fill="none" transform="matrix(1.01445 0 0 1 -158.589 -52.8365)"/><path d="M203.492 427.782 215.628 427.782" stroke="#262626" stroke-width="0.54372" stroke-linecap="square" stroke-linejoin="round" stroke-miterlimit="10" fill="none" transform="matrix(1.01445 0 0 1 -158.589 -52.8365)"/><path d="M203.492 335.619 215.628 335.619" stroke="#262626" stroke-width="0.54372" stroke-linecap="square" stroke-linejoin="round" stroke-miterlimit="10" fill="none" transform="matrix(1.01445 0 0 1 -158.589 -52.8365)"/><path d="M203.492 243.457 215.628 243.457" stroke="#262626" stroke-width="0.54372" stroke-linecap="square" stroke-linejoin="round" stroke-miterlimit="10" fill="none" transform="matrix(1.01445 0 0 1 -158.589 -52.8365)"/><path d="M203.492 151.294 215.628 151.294" stroke="#262626" stroke-width="0.54372" stroke-linecap="square" stroke-linejoin="round" stroke-miterlimit="10" fill="none" transform="matrix(1.01445 0 0 1 -158.589 -52.8365)"/><path d="M203.492 59.131 215.628 59.131" stroke="#262626" stroke-width="0.54372" stroke-linecap="square" stroke-linejoin="round" stroke-miterlimit="10" fill="none" transform="matrix(1.01445 0 0 1 -158.589 -52.8365)"/><path d="M1417.11 704.271 1404.97 704.271" stroke="#262626" stroke-width="0.54372" stroke-linecap="square" stroke-linejoin="round" stroke-miterlimit="10" fill="none" transform="matrix(1.01445 0 0 1 -158.589 -52.8365)"/><path d="M1417.11 612.108 1404.97 612.108" stroke="#262626" stroke-width="0.54372" stroke-linecap="square" stroke-linejoin="round" stroke-miterlimit="10" fill="none" transform="matrix(1.01445 0 0 1 -158.589 -52.8365)"/><path d="M1417.11 519.945 1404.97 519.945" stroke="#262626" stroke-width="0.54372" stroke-linecap="square" stroke-linejoin="round" stroke-miterlimit="10" fill="none" transform="matrix(1.01445 0 0 1 -158.589 -52.8365)"/><path d="M1417.11 427.782 1404.97 427.782" stroke="#262626" stroke-width="0.54372" stroke-linecap="square" stroke-linejoin="round" stroke-miterlimit="10" fill="none" transform="matrix(1.01445 0 0 1 -158.589 -52.8365)"/><path d="M1417.11 335.619 1404.97 335.619" stroke="#262626" stroke-width="0.54372" stroke-linecap="square" stroke-linejoin="round" stroke-miterlimit="10" fill="none" transform="matrix(1.01445 0 0 1 -158.589 -52.8365)"/><path d="M1417.11 243.457 1404.97 243.457" stroke="#262626" stroke-width="0.54372" stroke-linecap="square" stroke-linejoin="round" stroke-miterlimit="10" fill="none" transform="matrix(1.01445 0 0 1 -158.589 -52.8365)"/><path d="M1417.11 151.294 1404.97 151.294" stroke="#262626" stroke-width="0.54372" stroke-linecap="square" stroke-linejoin="round" stroke-miterlimit="10" fill="none" transform="matrix(1.01445 0 0 1 -158.589 -52.8365)"/><path d="M1417.11 59.131 1404.97 59.131" stroke="#262626" stroke-width="0.54372" stroke-linecap="square" stroke-linejoin="round" stroke-miterlimit="10" fill="none" transform="matrix(1.01445 0 0 1 -158.589 -52.8365)"/><text fill="#262626" font-family="Arial,Arial_MSFontService,sans-serif" font-weight="400" font-size="53" transform="matrix(2.53314e-17 -0.4078 0.413694 2.49706e-17 32.951 387)">Pulse Wave</text><path d="M211.583 575.806 219.674 577.334 227.764 578.878 235.855 580.406 243.946 583.52 252.037 586.634 260.128 591.334 268.218 594.448 276.309 599.147 284.4 602.261 292.491 605.375 300.581 606.903 308.672 610.017 316.763 611.561 324.854 608.363 332.944 600.423 341.035 584.601 349.126 560.881 357.217 527.693 365.307 488.193 373.398 442.381 381.489 391.828 389.58 339.704 397.67 298.634 405.761 262.29 413.852 229.102 421.943 202.226 430.033 184.818 438.124 176.894 446.215 178.422 454.306 189.434 462.396 208.328 470.487 231.963 478.578 258.755 486.669 285.547 494.759 310.753 502.85 332.803 510.941 358.009 519.032 380.074 527.122 403.71 535.213 424.174 543.304 446.239 551.395 466.704 559.485 485.613 567.576 504.507 575.667 520.245 583.758 532.827 591.848 539.097 599.939 543.797 608.03 542.169 616.121 537.4 624.211 527.89 632.302 515.209 640.393 502.543 648.484 489.877 656.574 477.21 664.665 466.115 672.756 458.19 680.847 453.406 688.937 450.208 697.028 450.166 705.119 451.71 713.21 456.394 721.3 462.664 729.391 472.09 737.482 483.102 745.573 494.113 753.663 506.695 761.754 517.707 769.845 527.133 777.936 536.559 786.026 542.829 794.117 549.099 802.208 552.213 810.299 555.326 818.389 558.44 826.48 561.554 834.571 564.668 842.662 567.782 850.752 572.482 858.843 574.01 866.934 577.124 875.025 578.668 883.115 580.196 891.206 583.31 899.297 586.424 907.388 589.538 915.478 592.652 923.569 595.781 931.66 598.895 939.751 603.579 947.841 608.279 955.932 611.393 964.023 612.921 972.114 614.464 980.204 614.422 988.295 612.795 996.386 608.026 1004.48 598.516 1012.57 585.835 1020.66 563.7 1028.75 532.098 1036.84 494.169 1044.93 446.786 1053.02 394.647 1061.11 340.953 1069.2 288.829 1077.29 243.017 1085.38 203.517 1093.47 175.056 1101.57 157.648 1109.66 151.294 1117.75 154.408 1125.84 163.849 1133.93 181.157 1142.02 204.793 1150.11 233.155 1158.2 261.532 1166.29 289.894 1174.38 316.686 1182.47 343.478 1190.56 367.113 1198.65 390.734 1206.75 409.643 1214.84 426.951 1222.93 444.275 1231.02 460.013 1239.11 475.766 1247.2 489.919 1255.29 500.93 1263.38 508.771 1271.47 511.885 1279.56 513.428 1287.65 508.644 1295.74 502.29 1303.83 494.366 1311.93 484.855 1320.02 475.345 1328.11 464.25 1336.2 454.74 1344.29 446.8 1352.38 438.875 1360.47 435.677 1368.56 434.049 1376.65 434.007 1384.74 437.121 1392.83 441.821 1400.92 448.091 1409.01 455.931 1417.11 463.787 1417.25 463.955" stroke="#000000" stroke-width="2.17492" stroke-linejoin="round" stroke-miterlimit="10" fill="none" fill-rule="evenodd" transform="matrix(1.01445 0 0 1 -158.589 -52.8365)"/><path d="M211.583 411.613 219.674 412.933 227.764 414.586 235.855 415.99 243.946 417.313 252.037 418.389 260.128 419.132 268.218 419.132 276.309 418.717 284.4 417.891 292.491 415.742 300.581 412.025 308.672 405.334 316.763 395.423 324.854 381.383 332.944 363.792 341.035 343.143 349.126 321.337 357.217 300.441 365.307 284.339 373.398 274.759 381.489 271.787 389.58 275.586 397.67 285.827 405.761 302.015 413.852 322.828 421.943 346.53 430.033 371.141 438.124 396.828 446.215 422.103 454.306 444.487 462.396 462.161 470.487 474.217 478.578 481.732 486.669 484.788 494.759 485.12 502.85 483.466 510.941 481.319 519.032 479.254 527.122 477.274 535.213 475.376 543.304 472.401 551.395 468.847 559.485 463.23 567.576 456.46 575.667 447.373 583.758 436.886 591.848 424.992 599.939 412.19 608.03 400.132 616.121 389.643 624.211 381.384 632.302 375.353 640.393 372.712 648.484 373.124 656.574 376.263 664.665 381.468 672.756 387.746 680.847 395.012 688.937 402.692 697.028 410.455 705.119 417.888 713.21 424.663 721.3 430.94 729.391 435.897 737.482 439.284 745.573 441.02 753.663 440.854 761.754 439.118 769.845 435.977 777.936 432.176 786.026 428.129 794.117 424.659 802.208 421.851 810.299 419.704 818.389 418.88 826.48 418.137 834.571 418.054 842.662 417.642 850.752 416.981 858.843 416.484 866.934 416.153 875.025 415.987 883.115 415.987 891.206 416.569 899.297 416.984 907.388 417.892 915.478 418.803 923.569 419.216 931.66 419.132 939.751 418.635 947.841 417.478 955.932 415.492 964.023 412.273 972.114 407.237 980.204 400.792 988.295 391.872 996.386 379.485 1004.48 363.708 1012.57 344.631 1020.66 323.404 1028.75 302.012 1036.84 282.688 1044.93 267.989 1053.02 260.308 1061.11 260.884 1069.2 269.885 1077.29 287.227 1085.38 310.765 1093.47 337.938 1101.57 366.762 1109.66 395.257 1117.75 422.1 1125.84 445.064 1133.93 463.482 1142.02 476.944 1150.11 486.029 1158.2 490.819 1166.29 491.893 1174.38 489.581 1182.47 485.12 1190.56 480.08 1198.65 474.711 1206.75 469.674 1214.84 464.883 1222.93 460.342 1231.02 455.387 1239.11 449.851 1247.2 443.245 1255.29 434.736 1263.38 425.155 1271.47 414.997 1279.56 405.173 1287.65 396.585 1295.74 389.318 1303.83 384.032 1311.93 380.725 1320.02 379.57 1328.11 380.395 1336.2 383.035 1344.29 387.164 1352.38 392.615 1360.47 399.059 1368.56 405.667 1376.65 412.273 1384.74 418.383 1392.83 423.505 1400.92 427.965 1409.01 431.847 1417.11 434.573 1417.25 434.607" stroke="#000000" stroke-width="1.6312" stroke-linejoin="bevel" stroke-miterlimit="1" stroke-dasharray="6.5248 6.5248" fill="none" fill-rule="evenodd" transform="matrix(1.01445 0 0 1 -158.589 -52.8365)"/><path d="M211.583 464.925 219.674 465.974 227.764 466.439 235.855 466.256 243.946 465.267 252.037 463.644 260.128 461.282 268.218 458.079 276.309 453.342 284.4 446.607 292.491 437.292 300.581 425.33 308.672 410.934 316.763 395.349 324.854 380.628 332.944 369.684 341.035 365.392 349.126 369.31 357.217 382.085 365.307 402.951 373.398 430.278 381.489 461.336 389.58 492.939 397.67 521.753 405.761 546.239 413.852 565.43 421.943 578.132 430.033 583.421 438.124 580.928 446.215 571.524 454.306 556.456 462.396 537.626 470.487 516.818 478.578 496.682 486.669 479.548 494.759 466.598 502.85 457.934 510.941 452.41 519.032 449.135 527.122 446.368 535.213 443.255 543.304 438.718 551.395 432.7 559.485 425.479 567.576 417.647 575.667 410.471 583.758 404.941 591.848 402.263 599.939 402.734 608.03 407.086 616.121 415.006 624.211 425.996 632.302 438.949 640.393 452.314 648.484 465.074 656.574 476.351 664.665 485.548 672.756 492.11 680.847 496.116 688.937 497.908 697.028 497.709 705.119 495.719 713.21 491.989 721.3 486.687 729.391 480.1 737.482 472.605 745.573 464.791 753.663 457.281 761.754 451.024 769.845 446.539 777.936 444.054 786.026 443.798 794.117 445.179 802.208 447.784 810.299 450.721 818.389 453.362 826.48 455.375 834.571 456.761 842.662 457.593 850.752 457.99 858.843 458.559 866.934 459.151 875.025 460.133 883.115 461.27 891.206 462.157 899.297 462.592 907.388 462.466 915.478 461.63 923.569 459.952 931.66 457.428 939.751 453.674 947.841 448.894 955.932 442.861 964.023 434.993 972.114 424.999 980.204 412.92 988.295 399.349 996.386 385.652 1004.48 373.748 1012.57 365.917 1020.66 364.9 1028.75 372.651 1036.84 389.785 1044.93 415.855 1053.02 448.645 1061.11 484.688 1069.2 520.178 1077.29 551.435 1085.38 575.666 1093.47 590.907 1101.57 596.485 1109.66 592.799 1117.75 581.611 1125.84 564.89 1133.93 544.606 1142.02 522.619 1150.11 500.793 1158.2 481.127 1166.29 464.62 1174.38 451.89 1182.47 442.907 1190.56 437.435 1198.65 434.625 1206.75 433.482 1214.84 432.701 1222.93 431.027 1231.02 428.179 1239.11 424.21 1247.2 419.816 1255.29 415.975 1263.38 413.609 1271.47 413.486 1279.56 416.081 1287.65 421.487 1295.74 429.075 1303.83 438.181 1311.93 447.987 1320.02 457.84 1328.11 467.281 1336.2 475.616 1344.29 482.491 1352.38 487.551 1360.47 490.561 1368.56 491.61 1376.65 490.976 1384.74 488.8 1392.83 485.502 1400.92 481.579 1409.01 477.251 1417.11 472.759 1417.25 472.676" stroke="#000000" stroke-width="1.6312" stroke-linejoin="bevel" stroke-miterlimit="1" stroke-dasharray="1.6312 1.6312" fill="none" fill-rule="evenodd" transform="matrix(1.01445 0 0 1 -158.589 -52.8365)"/><path d="M1408.54 152.517 1408.54 67.6948 1313.12 67.6948 1313.12 152.517Z" fill="#FFFFFF" transform="matrix(1.01445 0 0 1 -158.589 -52.8365)"/><text font-family="Arial,Arial_MSFontService,sans-serif" font-weight="400" font-size="53" transform="matrix(0.413694 0 0 0.4078 1212.39 39)">PPG</text><path d="M1316.38 82.7834 1349 82.7834" stroke="#000000" stroke-width="2.17492" stroke-linejoin="round" stroke-miterlimit="10" fill="none" transform="matrix(1.01445 0 0 1 -158.589 -52.8365)"/><text font-family="Arial,Arial_MSFontService,sans-serif" font-weight="400" font-size="53" transform="matrix(0.413694 0 0 0.4078 1212.39 66)">PPG<tspan font-size="53" x="111" y="0">'</tspan></text><path d="M1316.38 110.106 1349 110.106" stroke="#000000" stroke-width="1.6312" stroke-linejoin="bevel" stroke-miterlimit="1" stroke-dasharray="6.5248 6.5248" fill="none" transform="matrix(1.01445 0 0 1 -158.589 -52.8365)"/><text font-family="Arial,Arial_MSFontService,sans-serif" font-weight="400" font-size="53" transform="matrix(0.413694 0 0 0.4078 1212.39 93)">PPG<tspan font-size="53" x="111" y="0">"</tspan></text><path d="M1316.38 137.429 1349 137.429" stroke="#000000" stroke-width="1.6312" stroke-linejoin="bevel" stroke-miterlimit="1" stroke-dasharray="1.6312 1.6312" fill="none" transform="matrix(1.01445 0 0 1 -158.589 -52.8365)"/><path d="M1313.12 152.517 1313.12 67.6948 1408.54 67.6948 1408.54 152.517Z" stroke="#262626" stroke-width="0.54372" stroke-miterlimit="10" fill="none" fill-rule="evenodd" transform="matrix(1.01445 0 0 1 -158.589 -52.8365)"/></g></g><text font-family="Calibri,Calibri_MSFontService,sans-serif" font-weight="700" font-size="40" transform="translate(863.765 354)">a<tspan font-size="40" x="83.3253" y="173">b</tspan><tspan font-size="40" x="165.1" y="18">c</tspan><tspan font-size="40" x="204.518" y="3">d</tspan><tspan font-size="40" x="39.9328" y="-164">u</tspan><tspan font-size="40" x="145.533" y="123">v</tspan></text><path d="M298.662 78.0082 961.464 78.8227 961.461 80.8227 298.66 80.0082ZM299.995 83.0098 292 79 300.005 75.0098ZM960.126 75.821 968.121 79.8309 960.116 83.821Z"/><path d="M968 62 968 102.067" stroke="#000000" stroke-width="2" stroke-miterlimit="8" stroke-dasharray="2 2" fill="none" fill-rule="evenodd"/><path d="M286.5 568.5 286.5 597.773" stroke="#000000" stroke-width="1.33333" stroke-miterlimit="8" stroke-dasharray="1.33333 1.33333" fill="none" fill-rule="evenodd"/><path d="M164.5 561.5 164.5 594.078" stroke="#000000" stroke-width="1.33333" stroke-miterlimit="8" stroke-dasharray="1.33333 1.33333" fill="none" fill-rule="evenodd"/><path d="M170.667 587 278.506 587 278.506 589 170.667 589ZM172 592 164 588 172 584ZM277.173 584 285.173 588 277.173 592Z"/><path d="M6.67012-0.994789 542.531-0.576126 542.53 1.42387 6.66855 1.00521ZM7.99687 4.00625 0 0 8.00312-3.99375ZM541.199-3.57717 549.196 0.429081 541.193 4.42283Z" transform="matrix(1 0 0 -1 287 587.429)"/><path d="M1.023 6.66464 2.49468 433.243 0.494693 433.25-0.976989 6.67154ZM-3.97238 8.01375 0 0 4.02758 7.98615ZM5.49007 431.9 1.51769 439.914-2.50989 431.928Z" transform="matrix(1 0 0 -1 287 567.914)"/><path d="M235.669 343.015 280.781 343.113 280.776 345.113 235.664 345.015ZM236.991 348.017 229 344 237.009 340.017ZM279.454 340.11 287.445 344.128 279.436 348.11Z"/><path d="M294.667 343 364.243 343 364.243 345 294.667 345ZM296 348 288 344 296 340ZM362.909 340 370.909 344 362.909 348Z"/><text font-family="Calibri,Calibri_MSFontService,sans-serif" font-weight="700" font-size="19" transform="translate(556.423 69)">Cardiac Period (CP)<tspan font-size="19" x="-202.369" y="563">Diastolic Time (DT)</tspan><tspan font-size="19" x="-377.112" y="554">Systolic Upslope </tspan><tspan font-size="19" x="-356.379" y="577">Time (SUT)</tspan><tspan fill="#404040" font-size="19" x="-451.808" y="122">Systolic Width </tspan><tspan fill="#404040" font-size="19" x="-453.034" y="145">at 50% (SW50)</tspan><tspan fill="#404040" font-size="19" x="-150.3" y="210">Diastolic Width </tspan><tspan fill="#404040" font-size="19" x="-147.34" y="233">at 50% (SW50)</tspan><tspan fill="#404040" font-size="19" x="-183.3" y="113">Systolic Peak </tspan><tspan fill="#404040" font-size="19" x="-192.307" y="136">Amplitude (SA)</tspan></text><path d="M6.66998-0.987795 665.456 0.217829 665.452 2.21783 6.66632 1.0122ZM7.99267 4.01463 0 0 8.00731-3.98535ZM664.127-2.78461 672.12 1.23003 664.112 5.21538Z" transform="matrix(1 0 0 -1 164 570.23)"/><text font-family="Calibri,Calibri_MSFontService,sans-serif" font-weight="700" font-size="19" transform="translate(216.967 554)">The time between two onsets (Tpi<tspan font-size="19" x="262.653" y="0">)</tspan></text><path d="M0 0 58.8273 70.9184" stroke="#000000" stroke-width="2" stroke-miterlimit="8" stroke-dasharray="2 2" fill="none" fill-rule="evenodd" transform="matrix(-1 0 0 1 349.827 188)"/><path d="M160 224 270.745 344.99" stroke="#000000" stroke-width="2" stroke-miterlimit="8" stroke-dasharray="2 2" fill="none" fill-rule="evenodd"/><path d="M0 0 42.7407 59.3237" stroke="#000000" stroke-width="2" stroke-miterlimit="8" stroke-dasharray="2 2" fill="none" fill-rule="evenodd" transform="matrix(-1 0 0 1 381.741 283)"/><path d="M242.632 600.787 235 587" stroke="#000000" stroke-width="2" stroke-miterlimit="8" stroke-dasharray="2 2" fill="none" fill-rule="evenodd"/><text font-family="Calibri,Calibri_MSFontService,sans-serif" font-weight="700" font-size="40" transform="translate(1119.32 346)">e</text><path d="M288 55 288.196 123.354" stroke="#000000" stroke-width="2" stroke-miterlimit="8" stroke-dasharray="2 2" fill="none" fill-rule="evenodd"/><path d="M836.5 565.5 836.5 594" stroke="#000000" stroke-width="1.33333" stroke-miterlimit="8" stroke-dasharray="1.33333 1.33333" fill="none" fill-rule="evenodd"/><path d="M427.818 610.307 412 587" stroke="#000000" stroke-width="2" stroke-miterlimit="8" stroke-dasharray="2 2" fill="none" fill-rule="evenodd"/><path d="M1045.5 383.5C1045.5 380.739 1047.96 378.5 1051 378.5 1054.04 378.5 1056.5 380.739 1056.5 383.5 1056.5 386.261 1054.04 388.5 1051 388.5 1047.96 388.5 1045.5 386.261 1045.5 383.5Z" stroke="#000000" stroke-width="3" stroke-miterlimit="8" fill="#FF0000" fill-rule="evenodd"/><path d="M869.5 314.5C869.5 311.739 871.963 309.5 875 309.5 878.038 309.5 880.5 311.739 880.5 314.5 880.5 317.261 878.038 319.5 875 319.5 871.963 319.5 869.5 317.261 869.5 314.5Z" stroke="#000000" stroke-width="3" stroke-miterlimit="8" fill="#FF0000" fill-rule="evenodd"/><path d="M953.5 541.5C953.5 538.739 955.739 536.5 958.5 536.5 961.261 536.5 963.5 538.739 963.5 541.5 963.5 544.261 961.261 546.5 958.5 546.5 955.739 546.5 953.5 544.261 953.5 541.5Z" stroke="#000000" stroke-width="3" stroke-miterlimit="8" fill="#FF0000" fill-rule="evenodd"/><path d="M1074.5 378C1074.5 374.962 1076.74 372.5 1079.5 372.5 1082.26 372.5 1084.5 374.962 1084.5 378 1084.5 381.038 1082.26 383.5 1079.5 383.5 1076.74 383.5 1074.5 381.038 1074.5 378Z" stroke="#000000" stroke-width="3" stroke-miterlimit="8" fill="#FF0000" fill-rule="evenodd"/><path d="M1125.5 360.5C1125.5 357.739 1127.96 355.5 1131 355.5 1134.04 355.5 1136.5 357.739 1136.5 360.5 1136.5 363.261 1134.04 365.5 1131 365.5 1127.96 365.5 1125.5 363.261 1125.5 360.5Z" stroke="#000000" stroke-width="3" stroke-miterlimit="8" fill="#FF0000" fill-rule="evenodd"/><path d="M908.5 207C908.5 203.962 910.739 201.5 913.5 201.5 916.261 201.5 918.5 203.962 918.5 207 918.5 210.038 916.261 212.5 913.5 212.5 910.739 212.5 908.5 210.038 908.5 207Z" stroke="#000000" stroke-width="3" stroke-miterlimit="8" fill="#00B0F0" fill-rule="evenodd"/><path d="M1014.5 438C1014.5 434.962 1016.96 432.5 1020 432.5 1023.04 432.5 1025.5 434.962 1025.5 438 1025.5 441.038 1023.04 443.5 1020 443.5 1016.96 443.5 1014.5 441.038 1014.5 438Z" stroke="#000000" stroke-width="3" stroke-miterlimit="8" fill="#00B0F0" fill-rule="evenodd"/><path d="M1231.5 438C1231.5 434.962 1233.74 432.5 1236.5 432.5 1239.26 432.5 1241.5 434.962 1241.5 438 1241.5 441.038 1239.26 443.5 1236.5 443.5 1233.74 443.5 1231.5 441.038 1231.5 438Z" stroke="#000000" stroke-width="3" stroke-miterlimit="8" fill="#FF0000" fill-rule="evenodd"/><path d="M1176.5 327C1176.5 323.962 1178.74 321.5 1181.5 321.5 1184.26 321.5 1186.5 323.962 1186.5 327 1186.5 330.038 1184.26 332.5 1181.5 332.5 1178.74 332.5 1176.5 330.038 1176.5 327Z" stroke="#000000" stroke-width="3" stroke-miterlimit="8" fill="#00B0F0" fill-rule="evenodd"/><text font-family="Calibri,Calibri_MSFontService,sans-serif" font-weight="700" font-size="40" transform="translate(1162.25 367)">w<tspan font-size="40" x="67.4354" y="121">f</tspan></text><path d="M282.5 123C282.5 119.962 284.962 117.5 288 117.5 291.038 117.5 293.5 119.962 293.5 123 293.5 126.038 291.038 128.5 288 128.5 284.962 128.5 282.5 126.038 282.5 123Z" stroke="#000000" stroke-width="3" stroke-miterlimit="8" fill="#F44ADC" fill-rule="evenodd"/><text font-family="Calibri,Calibri_MSFontService,sans-serif" font-weight="700" font-size="24" transform="translate(300.019 120)">Systolic Peak</text><rect x="158.5" y="547.5" width="10" height="11" stroke="#000000" stroke-width="3" stroke-miterlimit="8" fill="#F44ADC"/><text font-family="Calibri,Calibri_MSFontService,sans-serif" font-weight="700" font-size="24" transform="translate(51.0712 508)">Systolic Onset</text><rect x="831.5" y="553.5" width="10" height="11" stroke="#000000" stroke-width="3" stroke-miterlimit="8" fill="#F44ADC"/><text font-family="Calibri,Calibri_MSFontService,sans-serif" font-weight="700" font-size="24" transform="translate(732.023 516)">Systolic Onset</text><path d="M540.5 402.5 546.5 392.5 552.5 402.5Z" stroke="#000000" stroke-width="3" stroke-miterlimit="8" fill="#F44ADC" fill-rule="evenodd"/><path d="M458.5 484.5 452.5 494.5 446.5 484.5Z" stroke="#000000" stroke-width="3" stroke-miterlimit="8" fill="#F44ADC" fill-rule="evenodd"/><text font-family="Calibri,Calibri_MSFontService,sans-serif" font-weight="700" font-size="24" transform="translate(477.565 381)">Diastolic Peak<tspan font-size="24" x="-83.4422" y="136">Dicrotic Notch</tspan></text></g></svg>