<svg width="1280" height="720" xmlns="http://www.w3.org/2000/svg" xmlns:xlink="http://www.w3.org/1999/xlink" overflow="hidden"><defs><clipPath id="clip0"><rect x="0" y="0" width="1280" height="720"/></clipPath><clipPath id="clip1"><rect x="2" y="6" width="1278" height="706"/></clipPath><clipPath id="clip2"><rect x="2" y="6" width="1278" height="706"/></clipPath><clipPath id="clip3"><rect x="-149" y="-47" width="1577" height="759"/></clipPath><clipPath id="clip4"><rect x="-149" y="-47" width="1577" height="759"/></clipPath></defs><g clip-path="url(#clip0)"><rect x="0" y="0" width="1280" height="720" fill="#FFFFFF"/><g clip-path="url(#clip1)"><g clip-path="url(#clip2)"><g clip-path="url(#clip3)"><g clip-path="url(#clip4)"><path d="M0 0 1576.71 0 1576.71 758.172 0 758.172Z" fill="#FFFFFF" transform="matrix(1 0 0 1.00094 -148.812 -46.8868)"/></g><path d="M0 0 1576.71 0 1576.71 758.172 0 758.172Z" fill="#FFFFFF" transform="matrix(1 0 0 1.00094 -148.812 -46.8868)"/><path d="M204.634 663.4 1426.4 663.4 1426.4 56.7421 204.634 56.7421Z" fill="#FFFFFF" transform="matrix(1 0 0 1.00094 -148.812 -46.8868)"/><path d="M204.634 663.4 1426.4 663.4" stroke="#262626" stroke-width="0.804833" stroke-linecap="square" stroke-linejoin="round" stroke-miterlimit="10" fill="none" transform="matrix(1 0 0 1.00094 -148.812 -46.8868)"/><path d="M204.634 56.7421 1426.4 56.7421" stroke="#262626" stroke-width="0.804833" stroke-linecap="square" stroke-linejoin="round" stroke-miterlimit="10" fill="none" transform="matrix(1 0 0 1.00094 -148.812 -46.8868)"/><path d="M208.739 663.4 208.739 651.182" stroke="#262626" stroke-width="0.804833" stroke-linecap="square" stroke-linejoin="round" stroke-miterlimit="10" fill="none" transform="matrix(1 0 0 1.00094 -148.812 -46.8868)"/><path d="M713.037 663.4 713.037 651.182" stroke="#262626" stroke-width="0.804833" stroke-linecap="square" stroke-linejoin="round" stroke-miterlimit="10" fill="none" transform="matrix(1 0 0 1.00094 -148.812 -46.8868)"/><path d="M1217.34 663.4 1217.34 651.182" stroke="#262626" stroke-width="0.804833" stroke-linecap="square" stroke-linejoin="round" stroke-miterlimit="10" fill="none" transform="matrix(1 0 0 1.00094 -148.812 -46.8868)"/><path d="M208.739 56.7421 208.739 68.9598" stroke="#262626" stroke-width="0.804833" stroke-linecap="square" stroke-linejoin="round" stroke-miterlimit="10" fill="none" transform="matrix(1 0 0 1.00094 -148.812 -46.8868)"/><path d="M713.037 56.7421 713.037 68.9598" stroke="#262626" stroke-width="0.804833" stroke-linecap="square" stroke-linejoin="round" stroke-miterlimit="10" fill="none" transform="matrix(1 0 0 1.00094 -148.812 -46.8868)"/><path d="M1217.34 56.7421 1217.34 68.9598" stroke="#262626" stroke-width="0.804833" stroke-linecap="square" stroke-linejoin="round" stroke-miterlimit="10" fill="none" transform="matrix(1 0 0 1.00094 -148.812 -46.8868)"/><text fill="#262626" font-family="Arial,Arial_MSFontService,sans-serif" font-weight="400" font-size="53" transform="matrix(0.60364 0 0 0.604209 50.8726 659)">0<tspan font-size="53" x="812.929" y="0">0</tspan>.<tspan font-size="53" x="856.929" y="0">5</tspan><tspan font-size="53" x="1670.87" y="0">1</tspan><tspan font-size="59" x="912.199" y="74.4775">Time </tspan><tspan font-size="59" x="1057.2" y="74.4775">(</tspan><tspan font-size="59" x="1077.2" y="74.4775">s</tspan><tspan font-size="59" x="1107.2" y="74.4775">)</tspan></text><path d="M204.634 663.4 204.634 56.7421" stroke="#262626" stroke-width="0.804833" stroke-linecap="square" stroke-linejoin="round" stroke-miterlimit="10" fill="none" transform="matrix(1 0 0 1.00094 -148.812 -46.8868)"/><path d="M1426.4 663.4 1426.4 56.7421" stroke="#262626" stroke-width="0.804833" stroke-linecap="square" stroke-linejoin="round" stroke-miterlimit="10" fill="none" transform="matrix(1 0 0 1.00094 -148.812 -46.8868)"/><text fill="#262626" font-family="Arial,Arial_MSFontService,sans-serif" font-weight="400" font-size="53" transform="matrix(3.69623e-17 -0.604209 0.60364 3.69971e-17 38.9199 400)">Pulse Wave</text><path d="M216.808 586.218 224.877 587.795 232.946 589.389 241.015 590.966 249.083 594.181 257.152 597.395 265.221 602.245 273.29 605.463 281.358 610.31 289.427 613.527 297.496 616.739 305.565 618.314 313.634 621.532 321.703 623.125 329.771 619.823 337.84 611.626 345.909 595.296 353.978 570.813 362.047 536.556 370.116 495.784 378.185 448.498 386.253 396.316 394.322 342.514 402.391 300.121 410.46 262.607 418.529 228.351 426.597 200.609 434.666 182.641 442.735 174.462 450.804 176.039 458.872 187.405 466.941 206.908 475.01 231.305 483.079 258.959 491.148 286.613 499.217 312.63 507.286 335.391 515.354 361.408 523.423 384.184 531.492 408.581 539.561 429.704 547.63 452.479 555.699 473.603 563.767 493.121 571.836 512.624 579.905 528.868 587.974 541.855 596.042 548.327 604.111 553.178 612.181 551.498 620.252 546.576 628.317 536.76 636.387 523.67 644.458 510.596 652.523 497.522 660.593 484.448 668.664 472.995 676.728 464.815 684.799 459.878 692.87 456.576 700.934 456.533 709.005 458.126 717.076 462.962 725.146 469.433 733.211 479.163 741.282 490.529 749.352 501.895 757.417 514.882 765.488 526.248 773.558 535.977 781.623 545.707 789.694 552.179 797.764 558.651 805.829 561.865 813.9 565.079 821.97 568.293 830.041 571.507 838.106 574.722 846.176 577.936 854.247 582.786 862.312 584.364 870.382 587.579 878.453 589.172 886.517 590.749 894.588 593.963 902.659 597.178 910.723 600.392 918.794 603.606 926.865 606.833 934.935 610.05 943 614.886 951.071 619.739 959.141 622.95 967.206 624.526 975.277 626.119 983.347 626.077 991.412 624.399 999.483 619.473 1007.55 609.658 1015.62 596.569 1023.69 573.723 1031.76 541.103 1039.83 501.952 1047.89 453.044 1055.97 399.226 1064.04 343.803 1072.1 290.001 1080.17 242.714 1088.24 201.942 1096.31 172.564 1104.38 154.596 1112.45 148.038 1120.52 151.252 1128.58 160.997 1136.65 178.863 1144.72 203.259 1152.79 232.535 1160.86 261.826 1168.93 291.1 1176.99 318.755 1185.07 346.41 1193.14 370.806 1201.2 395.187 1209.27 414.705 1217.34 432.571 1225.41 450.452 1233.48 466.697 1241.55 482.957 1249.62 497.565 1257.68 508.931 1265.75 517.024 1273.82 520.238 1281.89 521.831 1289.96 516.894 1298.03 510.335 1306.1 502.155 1314.17 492.339 1322.24 482.523 1330.31 471.07 1338.37 461.253 1346.44 453.058 1354.51 444.878 1362.58 441.578 1370.65 439.897 1378.72 439.854 1386.78 443.068 1394.85 447.919 1402.93 454.391 1411 462.483 1419.06 470.592 1426.55 479.617" stroke="#000000" stroke-width="3.21939" stroke-linejoin="round" stroke-miterlimit="10" fill="none" fill-rule="evenodd" transform="matrix(1 0 0 1.00094 -148.812 -46.8868)"/><path d="M216.808 416.738 224.877 418.101 232.946 419.807 241.015 421.256 249.083 422.621 257.152 423.732 265.221 424.5 273.29 424.5 281.358 424.071 289.427 423.219 297.496 421.001 305.565 417.163 313.634 410.257 321.703 400.027 329.771 385.535 337.84 367.377 345.909 346.064 353.978 323.555 362.047 301.987 370.116 285.366 378.185 275.478 386.253 272.411 394.322 276.332 402.391 286.902 410.46 303.612 418.529 325.094 426.597 349.561 434.666 374.964 442.735 401.478 450.804 427.566 458.872 450.671 466.941 468.914 475.01 481.358 483.079 489.115 491.148 492.269 499.217 492.612 507.286 490.905 515.354 488.689 523.423 486.557 531.492 484.514 539.561 482.554 547.63 479.484 555.699 475.815 563.767 470.017 571.836 463.029 579.905 453.649 587.974 442.825 596.042 430.548 604.111 417.334 612.181 404.888 620.252 394.061 628.317 385.536 636.387 379.311 644.458 376.585 652.523 377.01 660.593 380.251 668.664 385.623 676.728 392.103 684.799 399.603 692.87 407.53 700.934 415.543 709.005 423.215 717.076 430.209 725.146 436.688 733.211 441.805 741.282 445.3 749.352 447.092 757.417 446.921 765.488 445.129 773.558 441.887 781.623 437.964 789.694 433.786 797.764 430.204 805.829 427.306 813.9 425.09 821.97 424.24 830.041 423.472 838.106 423.386 846.176 422.961 854.247 422.279 862.312 421.767 870.382 421.425 878.453 421.254 886.517 421.253 894.588 421.854 902.659 422.282 910.723 423.219 918.794 424.16 926.865 424.586 934.935 424.499 943 423.987 951.071 422.792 959.141 420.742 967.206 417.419 975.277 412.221 983.347 405.569 991.412 396.362 999.483 383.576 1007.55 367.291 1015.62 347.599 1023.69 325.689 1031.76 303.608 1039.83 283.662 1047.89 268.491 1055.97 260.562 1064.04 261.156 1072.1 270.447 1080.17 288.347 1088.24 312.644 1096.31 340.691 1104.38 370.443 1112.45 399.856 1120.52 427.564 1128.58 451.267 1136.65 470.278 1144.72 484.173 1152.79 493.55 1160.86 498.495 1168.93 499.603 1176.99 497.217 1185.07 492.612 1193.14 487.41 1201.2 481.868 1209.27 476.669 1217.34 471.724 1225.41 467.037 1233.48 461.921 1241.55 456.207 1249.62 449.389 1257.68 440.606 1265.75 430.717 1273.82 420.232 1281.89 410.091 1289.96 401.226 1298.03 393.726 1306.1 388.269 1314.17 384.857 1322.24 383.664 1330.31 384.516 1338.37 387.24 1346.44 391.502 1354.51 397.129 1362.58 403.78 1370.65 410.601 1378.72 417.419 1386.78 423.727 1394.85 429.013 1402.93 433.617 1411 437.624 1419.06 440.437 1426.55 442.255" stroke="#000000" stroke-width="2.41456" stroke-linejoin="bevel" stroke-miterlimit="1" stroke-dasharray="9.65824 9.65824" fill="none" fill-rule="evenodd" transform="matrix(1 0 0 1.00094 -148.812 -46.8868)"/><path d="M216.808 471.767 224.877 472.849 232.946 473.33 241.015 473.141 249.083 472.12 257.152 470.445 265.221 468.007 273.29 464.701 281.358 459.811 289.427 452.859 297.496 443.244 305.565 430.897 313.634 416.037 321.703 399.951 329.771 384.756 337.84 373.459 345.909 369.03 353.978 373.073 362.047 386.26 370.116 407.797 378.185 436.004 386.253 468.063 394.322 500.683 402.391 530.424 410.46 555.699 418.529 575.508 426.597 588.619 434.666 594.079 442.735 591.505 450.804 581.798 458.872 566.244 466.941 546.808 475.01 525.33 483.079 504.546 491.148 486.861 499.217 473.494 507.286 464.551 515.354 458.85 523.423 455.468 531.492 452.612 539.561 449.4 547.63 444.716 555.699 438.504 563.767 431.051 571.836 422.966 579.905 415.56 587.974 409.851 596.042 407.087 604.111 407.573 612.181 412.066 620.252 420.241 628.317 431.585 636.387 444.954 644.458 458.75 652.523 471.921 660.593 483.561 668.664 493.054 676.728 499.828 684.799 503.962 692.87 505.811 700.934 505.607 709.005 503.553 717.076 499.703 725.146 494.229 733.211 487.431 741.282 479.694 749.352 471.629 757.417 463.877 765.488 457.419 773.558 452.789 781.623 450.224 789.694 449.96 797.764 451.386 805.829 454.074 813.9 457.106 821.97 459.832 830.041 461.909 838.106 463.34 846.176 464.199 854.247 464.609 862.312 465.196 870.382 465.806 878.453 466.82 886.517 467.995 894.588 468.91 902.659 469.359 910.723 469.229 918.794 468.366 926.865 466.634 934.935 464.029 943 460.153 951.071 455.219 959.141 448.992 967.206 440.871 975.277 430.556 983.347 418.087 991.412 404.079 999.483 389.941 1007.55 377.654 1015.62 369.571 1023.69 368.521 1031.76 376.522 1039.83 394.207 1047.89 421.117 1055.97 454.963 1064.04 492.166 1072.1 528.799 1080.17 561.063 1088.24 586.073 1096.31 601.805 1104.38 607.563 1112.45 603.76 1120.52 592.209 1128.58 574.95 1136.65 554.014 1144.72 531.318 1152.79 508.789 1160.86 488.491 1168.93 471.452 1176.99 458.312 1185.07 449.04 1193.14 443.392 1201.2 440.492 1209.27 439.312 1217.34 438.506 1225.41 436.777 1233.48 433.838 1241.55 429.741 1249.62 425.206 1257.68 421.24 1265.75 418.799 1273.82 418.671 1281.89 421.35 1289.96 426.93 1298.03 434.763 1306.1 444.162 1314.17 454.284 1322.24 464.453 1330.31 474.198 1338.37 482.803 1346.44 489.899 1354.51 495.121 1362.58 498.229 1370.65 499.311 1378.72 498.657 1386.78 496.41 1394.85 493.007 1402.93 488.957 1411 484.49 1419.06 479.854 1426.55 475.411" stroke="#000000" stroke-width="3.21939" stroke-linejoin="bevel" stroke-miterlimit="1" stroke-dasharray="3.0182 3.0182" fill="none" fill-rule="evenodd" transform="matrix(1 0 0 1.00094 -148.812 -46.8868)"/><path d="M-6.0364-6.0364-6.0364 6.0364 6.0364 6.0364 6.0364-6.0364Z" fill="#FFFFFF" transform="matrix(1 0 0 1.00094 172.891 576.826)"/><path d="M-6.0364-6.0364-6.0364 6.0364 6.0364 6.0364 6.0364-6.0364Z" stroke="#0000FF" stroke-width="4.82912" stroke-miterlimit="10" fill="none" transform="matrix(1 0 0 1.00094 172.891 576.826)"/><path d="M-6.0364-6.0364-6.0364 6.0364 6.0364 6.0364 6.0364-6.0364Z" fill="#FFFFFF" transform="matrix(1 0 0 1.00094 834.535 579.781)"/><path d="M-6.0364-6.0364-6.0364 6.0364 6.0364 6.0364 6.0364-6.0364Z" stroke="#0000FF" stroke-width="4.82912" stroke-miterlimit="10" fill="none" transform="matrix(1 0 0 1.00094 834.535 579.781)"/><path d="M8.04851 0C8.04851 4.44507 4.44507 8.04851-2.19217e-07 8.04851-4.44507 8.04851-8.04851 4.44507-8.04851-2.19217e-07-8.04851-4.44507-4.44507-8.04851-3.56458e-07-8.04851 4.44507-8.04851 8.04851-4.44507 8.04851 0Z" fill="#FFFFFF" transform="matrix(1 0 0 1.00094 293.923 127.739)"/><path d="M0-5.63395C3.11158-5.63395 5.63395-3.11158 5.63395 0L5.63395 0C5.63395 3.11158 3.11158 5.63395 0 5.63395-3.11158 5.63395-5.63395 3.11158-5.63395 0-5.63395-3.11158-3.11158-5.63395 0-5.63395ZM0-10.4631C-5.77858-10.4631-10.4631-5.77858-10.4631 0-10.4631 5.77858-5.77858 10.4631 0 10.4631 5.77858 10.4631 10.4631 5.77858 10.4631 0L10.4631 0C10.4631-5.77858 5.77858-10.4631 0-10.4631Z" fill="#FF0000" transform="matrix(1 0 0 1.00094 293.923 127.739)"/><path d="M8.04851 0C8.04851 4.44507 4.44507 8.04851-2.19217e-07 8.04851-4.44507 8.04851-8.04851 4.44507-8.04851-2.19217e-07-8.04851-4.44507-4.44507-8.04851-3.56458e-07-8.04851 4.44507-8.04851 8.04851-4.44507 8.04851 0Z" fill="#FFFFFF" transform="matrix(1 0 0 1.00094 963.636 101.291)"/><path d="M0-5.63395C3.11158-5.63395 5.63395-3.11158 5.63395 0L5.63395 0C5.63395 3.11158 3.11158 5.63395 0 5.63395-3.11158 5.63395-5.63395 3.11158-5.63395 0-5.63395-3.11158-3.11158-5.63395 0-5.63395ZM0-10.4631C-5.77858-10.4631-10.4631-5.77858-10.4631 0-10.4631 5.77858-5.77858 10.4631 0 10.4631 5.77858 10.4631 10.4631 5.77858 10.4631 0L10.4631 0C10.4631-5.77858 5.77858-10.4631 0-10.4631Z" fill="#FF0000" transform="matrix(1 0 0 1.00094 963.636 101.291)"/><path d="M0 10.7287-9.29104-5.36437 9.29104-5.36437Z" fill="#FFFFFF" transform="matrix(1 0 0 1.00094 455.299 506.813)"/><path d="M0 10.7287-9.29104-5.36437 9.29104-5.36437Z" stroke="#FF00FF" stroke-width="4.82912" stroke-miterlimit="10" fill="none" transform="matrix(1 0 0 1.00094 455.299 506.813)"/><path d="M0 10.7287-9.29104-5.36437 9.29104-5.36437Z" fill="#FFFFFF" transform="matrix(1 0 0 1.00094 1133.08 475.437)"/><path d="M0 10.7287-9.29104-5.36437 9.29104-5.36437Z" stroke="#FF00FF" stroke-width="4.82912" stroke-miterlimit="10" fill="none" transform="matrix(1 0 0 1.00094 1133.08 475.437)"/><path d="M0-8.45096 0 8.45096M-8.45096 0 8.45096 0M-5.69118-5.69118 5.69118 5.69118M-5.69118 5.69118 5.69118-5.69118" fill="#FFFFFF" transform="matrix(1 0 0 1.00094 552.122 410.077)"/><path d="M0-8.45096 0 8.45096M-8.45096 0 8.45096 0M-5.69118-5.69118 5.69118 5.69118M-5.69118 5.69118 5.69118-5.69118" stroke="#00FFFF" stroke-width="4.82912" stroke-miterlimit="10" fill="none" transform="matrix(1 0 0 1.00094 552.122 410.077)"/><path d="M0-8.45096 0 8.45096M-8.45096 0 8.45096 0M-5.69118-5.69118 5.69118 5.69118M-5.69118 5.69118 5.69118-5.69118" fill="#FFFFFF" transform="matrix(1 0 0 1.00094 1221.84 393.425)"/><path d="M0-8.45096 0 8.45096M-8.45096 0 8.45096 0M-5.69118-5.69118 5.69118 5.69118M-5.69118 5.69118 5.69118-5.69118" stroke="#00FFFF" stroke-width="4.82912" stroke-miterlimit="10" fill="none" transform="matrix(1 0 0 1.00094 1221.84 393.425)"/><path d="M1413.72 289.143 1413.72 69.4186 1197.62 69.4186 1197.62 289.143Z" fill="#FFFFFF" transform="matrix(1 0 0 1.00094 -148.812 -46.8868)"/><text font-family="Arial,Arial_MSFontService,sans-serif" font-weight="400" font-size="40" transform="matrix(0.60364 0 0 0.604209 1105.55 50)">PPG signal</text><path d="M1202.45 86.9241 1250.74 86.9241" stroke="#000000" stroke-width="3.21939" stroke-linejoin="round" stroke-miterlimit="10" fill="none" transform="matrix(1 0 0 1.00094 -148.812 -46.8868)"/><text font-family="Arial,Arial_MSFontService,sans-serif" font-weight="400" font-size="40" transform="matrix(0.60364 0 0 0.604209 1105.55 81)">1<tspan font-size="40" x="21.9999" y="0">st drt</tspan></text><path d="M1202.45 117.71 1250.74 117.71" stroke="#000000" stroke-width="2.41456" stroke-linejoin="bevel" stroke-miterlimit="1" stroke-dasharray="9.65824 9.65824" fill="none" transform="matrix(1 0 0 1.00094 -148.812 -46.8868)"/><text font-family="Arial,Arial_MSFontService,sans-serif" font-weight="400" font-size="40" transform="matrix(0.60364 0 0 0.604209 1105.55 111)">2<tspan font-size="40" x="21.9999" y="0">nd drt</tspan></text><path d="M1202.45 148.495 1250.74 148.495" stroke="#000000" stroke-width="3.21939" stroke-linejoin="bevel" stroke-miterlimit="1" stroke-dasharray="3.0182 3.0182" fill="none" transform="matrix(1 0 0 1.00094 -148.812 -46.8868)"/><text font-family="Arial,Arial_MSFontService,sans-serif" font-weight="400" font-size="40" transform="matrix(0.60364 0 0 0.604209 1105.55 142)">Systolic Peak</text><path d="M-6.0364-6.0364-6.0364 6.0364 6.0364 6.0364 6.0364-6.0364Z" fill="#FFFFFF" transform="matrix(1 0 0 1.00094 1077.78 132.563)"/><path d="M-6.0364-6.0364-6.0364 6.0364 6.0364 6.0364 6.0364-6.0364Z" stroke="#0000FF" stroke-width="4.82912" stroke-miterlimit="10" fill="none" transform="matrix(1 0 0 1.00094 1077.78 132.563)"/><text font-family="Arial,Arial_MSFontService,sans-serif" font-weight="400" font-size="40" transform="matrix(0.60364 0 0 0.604209 1105.55 173)">Systolic Onset</text><path d="M8.04851 0C8.04851 4.44507 4.44507 8.04851-2.19217e-07 8.04851-4.44507 8.04851-8.04851 4.44507-8.04851-2.19217e-07-8.04851-4.44507-4.44507-8.04851-3.56458e-07-8.04851 4.44507-8.04851 8.04851-4.44507 8.04851 0Z" fill="#FFFFFF" transform="matrix(1 0 0 1.00094 1077.78 163.378)"/><path d="M0-5.63395C3.11158-5.63395 5.63395-3.11158 5.63395 0L5.63395 0C5.63395 3.11158 3.11158 5.63395 0 5.63395-3.11158 5.63395-5.63395 3.11158-5.63395 0-5.63395-3.11158-3.11158-5.63395 0-5.63395ZM0-10.4631C-5.77858-10.4631-10.4631-5.77858-10.4631 0-10.4631 5.77858-5.77858 10.4631 0 10.4631 5.77858 10.4631 10.4631 5.77858 10.4631 0L10.4631 0C10.4631-5.77858 5.77858-10.4631 0-10.4631Z" fill="#FF0000" transform="matrix(1 0 0 1.00094 1077.78 163.378)"/><text font-family="Arial,Arial_MSFontService,sans-serif" font-weight="400" font-size="40" transform="matrix(0.60364 0 0 0.604209 1105.55 204)">Dicrotic Notch</text><path d="M0 10.7287-9.29104-5.36437 9.29104-5.36437Z" fill="#FFFFFF" transform="matrix(1 0 0 1.00094 1077.78 194.193)"/><path d="M0 10.7287-9.29104-5.36437 9.29104-5.36437Z" stroke="#FF00FF" stroke-width="4.82912" stroke-miterlimit="10" fill="none" transform="matrix(1 0 0 1.00094 1077.78 194.193)"/><text font-family="Arial,Arial_MSFontService,sans-serif" font-weight="400" font-size="40" transform="matrix(0.60364 0 0 0.604209 1105.55 235)">Diastolic Peak</text><path d="M0-8.45096 0 8.45096M-8.45096 0 8.45096 0M-5.69118-5.69118 5.69118 5.69118M-5.69118 5.69118 5.69118-5.69118" fill="#FFFFFF" transform="matrix(1 0 0 1.00094 1077.78 225.007)"/><path d="M0-8.45096 0 8.45096M-8.45096 0 8.45096 0M-5.69118-5.69118 5.69118 5.69118M-5.69118 5.69118 5.69118-5.69118" stroke="#00FFFF" stroke-width="4.82912" stroke-miterlimit="10" fill="none" transform="matrix(1 0 0 1.00094 1077.78 225.007)"/><path d="M1197.62 289.143 1197.62 69.4186 1413.72 69.4186 1413.72 289.143Z" stroke="#262626" stroke-width="0.804833" stroke-miterlimit="10" fill="none" fill-rule="evenodd" transform="matrix(1 0 0 1.00094 -148.812 -46.8868)"/></g></g></g><text font-family="Calibri,Calibri_MSFontService,sans-serif" font-weight="700" font-size="40" transform="translate(860.098 350)">a<tspan font-size="40" x="86.7505" y="196">b</tspan><tspan font-size="40" x="150.016" y="55">c</tspan><tspan font-size="40" x="201.914" y="21">d</tspan><tspan font-size="40" x="34.8425" y="-148">u</tspan><tspan font-size="40" x="150.702" y="131">v</tspan></text><path d="M304.666 70.0149 956.008 71.4674 956.004 73.4674 304.661 72.0149ZM305.991 75.0178 298 71 306.009 67.0179ZM954.681 68.4645 962.672 72.4823 954.663 76.4645Z"/><path d="M965 52 965 92.0666" stroke="#000000" stroke-width="2" stroke-miterlimit="8" stroke-dasharray="2 2" fill="none" fill-rule="evenodd"/><path d="M294.5 588.5 294.5 617.773" stroke="#000000" stroke-width="1.33333" stroke-miterlimit="8" stroke-dasharray="1.33333 1.33333" fill="none" fill-rule="evenodd"/><path d="M172.5 581.5 172.5 614.078" stroke="#000000" stroke-width="1.33333" stroke-miterlimit="8" stroke-dasharray="1.33333 1.33333" fill="none" fill-rule="evenodd"/><path d="M178.667 607 286.506 607 286.506 609 178.667 609ZM180 612 172 608 180 604ZM285.173 604 293.173 608 285.173 612Z"/><path d="M301.663 607 826.96 607 826.96 609 301.663 609ZM303 612 295 608 303 604ZM825.628 604 833.628 608 825.628 612Z"/><path d="M1.00031 6.66697 1.02069 451.874-0.979308 451.874-0.999695 6.66706ZM-3.99963 8.00018 0 0 4.00037 7.99982ZM4.02063 450.541 0.0209974 458.541-3.97937 450.541Z" transform="matrix(1 0 0 -1 294 591.541)"/><path d="M245.667 354 285.441 354 285.441 356 245.667 356ZM247 359 239 355 247 351ZM284.108 351 292.108 355 284.108 359Z"/><path d="M303.667 354 369.475 354 369.475 356 303.667 356ZM305 359 297 355 305 351ZM368.142 351 376.142 355 368.142 359Z"/><text font-family="Calibri,Calibri_MSFontService,sans-serif" font-weight="700" font-size="19" transform="translate(555.424 65)">Cardiac Period (CP)<tspan font-size="19" x="-192.869" y="588">Diastolic Time (DT)</tspan><tspan font-size="19" x="-363.965" y="588">Systolic Upslope </tspan><tspan font-size="19" x="-343.231" y="611">Time (SUT)</tspan><tspan fill="#404040" font-size="19" x="-445.524" y="137">Systolic Width </tspan><tspan fill="#404040" font-size="19" x="-446.75" y="160">at 50% (SW50)</tspan><tspan fill="#404040" font-size="19" x="-144.016" y="225">Diastolic Width </tspan><tspan fill="#404040" font-size="19" x="-141.056" y="248">at 50% (SW50)</tspan><tspan fill="#404040" font-size="19" x="-177.016" y="128">Systolic Peak </tspan><tspan fill="#404040" font-size="19" x="-186.023" y="151">Amplitude (SA)</tspan></text><path d="M178.666 590 826.885 590 826.885 592 178.666 592ZM180 595 172 591 180 587ZM825.551 587 833.551 591 825.551 595Z"/><text font-family="Calibri,Calibri_MSFontService,sans-serif" font-weight="700" font-size="19" transform="translate(223.706 579)">The time between two onsets (Tpi<tspan font-size="19" x="262.653" y="0">)</tspan></text><path d="M0 0 58.8273 70.9184" stroke="#000000" stroke-width="2" stroke-miterlimit="8" stroke-dasharray="2 2" fill="none" fill-rule="evenodd" transform="matrix(-1 0 0 1 354.827 198)"/><path d="M165 235 275.745 355.99" stroke="#000000" stroke-width="2" stroke-miterlimit="8" stroke-dasharray="2 2" fill="none" fill-rule="evenodd"/><path d="M0 0 42.7407 59.3237" stroke="#000000" stroke-width="2" stroke-miterlimit="8" stroke-dasharray="2 2" fill="none" fill-rule="evenodd" transform="matrix(-1 0 0 1 386.741 293)"/><path d="M254.23 630.745 241 610" stroke="#000000" stroke-width="2" stroke-miterlimit="8" stroke-dasharray="2 2" fill="none" fill-rule="evenodd"/><text font-family="Calibri,Calibri_MSFontService,sans-serif" font-weight="700" font-size="40" transform="translate(1112.72 357)">e</text><path d="M294 47 294.196 115.354" stroke="#000000" stroke-width="2" stroke-miterlimit="8" stroke-dasharray="2 2" fill="none" fill-rule="evenodd"/><path d="M834.5 587.5 834.5 614.624" stroke="#000000" stroke-width="1.33333" stroke-miterlimit="8" stroke-dasharray="1.33333 1.33333" fill="none" fill-rule="evenodd"/><path d="M435.818 631.307 420 608" stroke="#000000" stroke-width="2" stroke-miterlimit="8" stroke-dasharray="2 2" fill="none" fill-rule="evenodd"/><path d="M1030.5 405C1030.5 401.962 1032.74 399.5 1035.5 399.5 1038.26 399.5 1040.5 401.962 1040.5 405 1040.5 408.038 1038.26 410.5 1035.5 410.5 1032.74 410.5 1030.5 408.038 1030.5 405Z" stroke="#000000" stroke-width="3" stroke-miterlimit="8" fill="#FF0000" fill-rule="evenodd"/><path d="M865.5 320.5C865.5 317.739 867.739 315.5 870.5 315.5 873.261 315.5 875.5 317.739 875.5 320.5 875.5 323.261 873.261 325.5 870.5 325.5 867.739 325.5 865.5 323.261 865.5 320.5Z" stroke="#000000" stroke-width="3" stroke-miterlimit="8" fill="#FF0000" fill-rule="evenodd"/><path d="M953.5 559.5C953.5 556.739 955.739 554.5 958.5 554.5 961.261 554.5 963.5 556.739 963.5 559.5 963.5 562.261 961.261 564.5 958.5 564.5 955.739 564.5 953.5 562.261 953.5 559.5Z" stroke="#000000" stroke-width="3" stroke-miterlimit="8" fill="#FF0000" fill-rule="evenodd"/><path d="M1066.5 391C1066.5 387.962 1068.96 385.5 1072 385.5 1075.04 385.5 1077.5 387.962 1077.5 391 1077.5 394.038 1075.04 396.5 1072 396.5 1068.96 396.5 1066.5 394.038 1066.5 391Z" stroke="#000000" stroke-width="3" stroke-miterlimit="8" fill="#FF0000" fill-rule="evenodd"/><path d="M1116.5 371C1116.5 367.962 1118.96 365.5 1122 365.5 1125.04 365.5 1127.5 367.962 1127.5 371 1127.5 374.038 1125.04 376.5 1122 376.5 1118.96 376.5 1116.5 374.038 1116.5 371Z" stroke="#000000" stroke-width="3" stroke-miterlimit="8" fill="#FF0000" fill-rule="evenodd"/><path d="M905.5 215C905.5 211.962 907.963 209.5 911 209.5 914.038 209.5 916.5 211.962 916.5 215 916.5 218.038 914.038 220.5 911 220.5 907.963 220.5 905.5 218.038 905.5 215Z" stroke="#000000" stroke-width="3" stroke-miterlimit="8" fill="#00B0F0" fill-rule="evenodd"/><path d="M1015.5 453.5C1015.5 450.739 1017.74 448.5 1020.5 448.5 1023.26 448.5 1025.5 450.739 1025.5 453.5 1025.5 456.261 1023.26 458.5 1020.5 458.5 1017.74 458.5 1015.5 456.261 1015.5 453.5Z" stroke="#000000" stroke-width="3" stroke-miterlimit="8" fill="#00B0F0" fill-rule="evenodd"/><path d="M1220.5 454C1220.5 450.962 1222.96 448.5 1226 448.5 1229.04 448.5 1231.5 450.962 1231.5 454 1231.5 457.038 1229.04 459.5 1226 459.5 1222.96 459.5 1220.5 457.038 1220.5 454Z" stroke="#000000" stroke-width="3" stroke-miterlimit="8" fill="#FF0000" fill-rule="evenodd"/><path d="M1170.5 338C1170.5 334.962 1172.96 332.5 1176 332.5 1179.04 332.5 1181.5 334.962 1181.5 338 1181.5 341.038 1179.04 343.5 1176 343.5 1172.96 343.5 1170.5 341.038 1170.5 338Z" stroke="#000000" stroke-width="3" stroke-miterlimit="8" fill="#00B0F0" fill-rule="evenodd"/><text font-family="Calibri,Calibri_MSFontService,sans-serif" font-weight="700" font-size="40" transform="translate(1161.42 371)">w<tspan font-size="40" x="57.4635" y="124">f</tspan></text></g></svg>