<svg width="1280" height="720" xmlns="http://www.w3.org/2000/svg" xmlns:xlink="http://www.w3.org/1999/xlink" overflow="hidden"><defs><clipPath id="clip0"><rect x="0" y="0" width="1280" height="720"/></clipPath></defs><g clip-path="url(#clip0)"><rect x="0" y="0" width="1280" height="720" fill="#FFFFFF"/><path d="M0 0 1600.93 0 1600.93 808.803 0 808.803Z" fill="#FFFFFF" transform="matrix(1 0 0 1.00035 -169.635 -66.4355)"/><path d="M0 0 1600.93 0 1600.93 808.803 0 808.803Z" fill="#FFFFFF" transform="matrix(1 0 0 1.00035 -169.635 -66.4355)"/><path d="M207.899 719.863 1448.62 719.863 1448.62 60.5907 207.899 60.5907Z" fill="#FFFFFF" transform="matrix(1 0 0 1.00035 -169.635 -66.4355)"/><path d="M207.899 719.863 1448.62 719.863" stroke="#262626" stroke-width="0.555878" stroke-linecap="square" stroke-linejoin="round" stroke-miterlimit="10" fill="none" transform="matrix(1 0 0 1.00035 -169.635 -66.4355)"/><path d="M207.899 60.5907 1448.62 60.5907" stroke="#262626" stroke-width="0.555878" stroke-linecap="square" stroke-linejoin="round" stroke-miterlimit="10" fill="none" transform="matrix(1 0 0 1.00035 -169.635 -66.4355)"/><path d="M207.899 719.863 207.899 707.455" stroke="#262626" stroke-width="0.555878" stroke-linecap="square" stroke-linejoin="round" stroke-miterlimit="10" fill="none" transform="matrix(1 0 0 1.00035 -169.635 -66.4355)"/><path d="M724.865 719.863 724.865 707.455" stroke="#262626" stroke-width="0.555878" stroke-linecap="square" stroke-linejoin="round" stroke-miterlimit="10" fill="none" transform="matrix(1 0 0 1.00035 -169.635 -66.4355)"/><path d="M1241.83 719.863 1241.83 707.455" stroke="#262626" stroke-width="0.555878" stroke-linecap="square" stroke-linejoin="round" stroke-miterlimit="10" fill="none" transform="matrix(1 0 0 1.00035 -169.635 -66.4355)"/><path d="M207.899 60.5907 207.899 72.998" stroke="#262626" stroke-width="0.555878" stroke-linecap="square" stroke-linejoin="round" stroke-miterlimit="10" fill="none" transform="matrix(1 0 0 1.00035 -169.635 -66.4355)"/><path d="M724.865 60.5907 724.865 72.998" stroke="#262626" stroke-width="0.555878" stroke-linecap="square" stroke-linejoin="round" stroke-miterlimit="10" fill="none" transform="matrix(1 0 0 1.00035 -169.635 -66.4355)"/><path d="M1241.83 60.5907 1241.83 72.998" stroke="#262626" stroke-width="0.555878" stroke-linecap="square" stroke-linejoin="round" stroke-miterlimit="10" fill="none" transform="matrix(1 0 0 1.00035 -169.635 -66.4355)"/><text fill="#262626" font-family="Arial,Arial_MSFontService,sans-serif" font-weight="400" font-size="40" transform="matrix(0.555878 0 0 0.556073 31.8714 684)">0<tspan font-size="40" x="908" y="0">500</tspan><tspan font-size="40" x="1827" y="0">1000</tspan><tspan font-size="44" x="1030.5" y="55.748">Time </tspan><tspan font-size="44" x="1138.5" y="55.748">[</tspan><tspan font-size="44" x="1150.5" y="55.748">ms</tspan><tspan font-size="44" x="1210.5" y="55.748">]</tspan></text><path d="M207.899 719.863 207.899 60.5907" stroke="#262626" stroke-width="0.555878" stroke-linecap="square" stroke-linejoin="round" stroke-miterlimit="10" fill="none" transform="matrix(1 0 0 1.00035 -169.635 -66.4355)"/><path d="M1448.62 719.863 1448.62 60.5907" stroke="#262626" stroke-width="0.555878" stroke-linecap="square" stroke-linejoin="round" stroke-miterlimit="10" fill="none" transform="matrix(1 0 0 1.00035 -169.635 -66.4355)"/><path d="M207.899 719.863 220.306 719.863" stroke="#262626" stroke-width="0.555878" stroke-linecap="square" stroke-linejoin="round" stroke-miterlimit="10" fill="none" transform="matrix(1 0 0 1.00035 -169.635 -66.4355)"/><path d="M207.899 625.68 220.306 625.68" stroke="#262626" stroke-width="0.555878" stroke-linecap="square" stroke-linejoin="round" stroke-miterlimit="10" fill="none" transform="matrix(1 0 0 1.00035 -169.635 -66.4355)"/><path d="M207.899 531.499 220.306 531.499" stroke="#262626" stroke-width="0.555878" stroke-linecap="square" stroke-linejoin="round" stroke-miterlimit="10" fill="none" transform="matrix(1 0 0 1.00035 -169.635 -66.4355)"/><path d="M207.899 437.317 220.306 437.317" stroke="#262626" stroke-width="0.555878" stroke-linecap="square" stroke-linejoin="round" stroke-miterlimit="10" fill="none" transform="matrix(1 0 0 1.00035 -169.635 -66.4355)"/><path d="M207.899 343.136 220.306 343.136" stroke="#262626" stroke-width="0.555878" stroke-linecap="square" stroke-linejoin="round" stroke-miterlimit="10" fill="none" transform="matrix(1 0 0 1.00035 -169.635 -66.4355)"/><path d="M207.899 248.954 220.306 248.954" stroke="#262626" stroke-width="0.555878" stroke-linecap="square" stroke-linejoin="round" stroke-miterlimit="10" fill="none" transform="matrix(1 0 0 1.00035 -169.635 -66.4355)"/><path d="M207.899 154.773 220.306 154.773" stroke="#262626" stroke-width="0.555878" stroke-linecap="square" stroke-linejoin="round" stroke-miterlimit="10" fill="none" transform="matrix(1 0 0 1.00035 -169.635 -66.4355)"/><path d="M207.899 60.5907 220.306 60.5907" stroke="#262626" stroke-width="0.555878" stroke-linecap="square" stroke-linejoin="round" stroke-miterlimit="10" fill="none" transform="matrix(1 0 0 1.00035 -169.635 -66.4355)"/><path d="M1448.62 719.863 1436.21 719.863" stroke="#262626" stroke-width="0.555878" stroke-linecap="square" stroke-linejoin="round" stroke-miterlimit="10" fill="none" transform="matrix(1 0 0 1.00035 -169.635 -66.4355)"/><path d="M1448.62 625.68 1436.21 625.68" stroke="#262626" stroke-width="0.555878" stroke-linecap="square" stroke-linejoin="round" stroke-miterlimit="10" fill="none" transform="matrix(1 0 0 1.00035 -169.635 -66.4355)"/><path d="M1448.62 531.499 1436.21 531.499" stroke="#262626" stroke-width="0.555878" stroke-linecap="square" stroke-linejoin="round" stroke-miterlimit="10" fill="none" transform="matrix(1 0 0 1.00035 -169.635 -66.4355)"/><path d="M1448.62 437.317 1436.21 437.317" stroke="#262626" stroke-width="0.555878" stroke-linecap="square" stroke-linejoin="round" stroke-miterlimit="10" fill="none" transform="matrix(1 0 0 1.00035 -169.635 -66.4355)"/><path d="M1448.62 343.136 1436.21 343.136" stroke="#262626" stroke-width="0.555878" stroke-linecap="square" stroke-linejoin="round" stroke-miterlimit="10" fill="none" transform="matrix(1 0 0 1.00035 -169.635 -66.4355)"/><path d="M1448.62 248.954 1436.21 248.954" stroke="#262626" stroke-width="0.555878" stroke-linecap="square" stroke-linejoin="round" stroke-miterlimit="10" fill="none" transform="matrix(1 0 0 1.00035 -169.635 -66.4355)"/><path d="M1448.62 154.773 1436.21 154.773" stroke="#262626" stroke-width="0.555878" stroke-linecap="square" stroke-linejoin="round" stroke-miterlimit="10" fill="none" transform="matrix(1 0 0 1.00035 -169.635 -66.4355)"/><path d="M1448.62 60.5907 1436.21 60.5907" stroke="#262626" stroke-width="0.555878" stroke-linecap="square" stroke-linejoin="round" stroke-miterlimit="10" fill="none" transform="matrix(1 0 0 1.00035 -169.635 -66.4355)"/><text fill="#262626" font-family="Arial,Arial_MSFontService,sans-serif" font-weight="400" font-size="40" transform="matrix(3.40377e-17 -0.556073 0.555878 3.40496e-17 21.4025 395)">Amplitude <tspan font-size="40" x="185.227" y="-1.13419e-14">[</tspan><tspan font-size="40" x="196.017" y="-1.20026e-14">nu</tspan><tspan font-size="40" x="239.177" y="-1.46454e-14">]</tspan></text><path d="M216.17 588.586 224.441 590.148 232.713 591.721 240.984 593.284 249.256 596.469 257.527 599.648 265.799 604.451 274.07 607.636 282.342 612.433 290.613 615.619 298.885 618.798 307.156 620.36 315.428 623.545 323.699 625.124 331.971 621.856 340.242 613.74 348.514 597.569 356.785 573.333 365.056 539.417 373.328 499.052 381.599 452.237 389.871 400.575 398.142 347.309 406.414 305.34 414.685 268.2 422.957 234.285 431.228 206.82 439.5 189.031 447.771 180.933 456.043 182.495 464.314 193.748 472.586 213.055 480.857 237.209 489.129 264.588 497.4 291.966 505.671 317.725 513.943 340.258 522.214 366.016 530.486 388.564 538.757 412.717 547.029 433.63 555.3 456.179 563.572 477.092 571.843 496.415 580.115 515.723 588.386 531.806 596.658 544.664 604.929 551.071 613.201 555.873 621.472 554.21 629.744 549.337 638.015 539.618 646.286 526.659 654.558 513.716 662.829 500.772 671.101 487.828 679.372 476.49 687.644 468.391 695.915 463.503 704.187 460.235 712.458 460.192 720.73 461.769 729.001 466.556 737.273 472.964 745.544 482.596 753.816 493.848 762.087 505.101 770.359 517.959 778.63 529.212 786.901 538.844 795.173 548.477 803.444 554.884 811.716 561.293 819.987 564.472 828.259 567.657 836.53 570.837 844.802 574.022 853.073 577.202 861.345 580.381 869.616 585.184 877.888 586.746 886.159 589.932 894.431 591.51 902.702 593.072 910.974 596.252 919.245 599.431 927.516 602.617 935.788 605.796 944.059 608.998 952.331 612.178 960.602 616.964 968.874 621.767 977.145 624.952 985.417 626.514 993.688 628.087 1001.96 628.048 1010.23 626.38 1018.5 621.511 1026.77 611.789 1035.05 598.831 1043.32 576.212 1051.59 543.919 1059.86 505.158 1068.13 456.738 1076.4 403.457 1084.67 348.586 1092.95 295.32 1101.22 248.505 1109.49 208.14 1117.76 179.055 1126.03 161.266 1134.3 154.773 1142.57 157.955 1150.85 167.602 1159.12 185.29 1167.39 209.443 1175.66 238.427 1183.93 267.426 1192.2 296.409 1200.48 323.788 1208.75 351.166 1217.02 375.32 1225.29 399.458 1233.56 418.781 1241.83 436.469 1250.1 454.172 1258.38 470.254 1266.65 486.352 1274.92 500.815 1283.19 512.068 1291.46 520.08 1299.73 523.262 1308 524.839 1316.28 519.951 1324.55 513.458 1332.82 505.36 1341.09 495.641 1349.36 485.923 1357.63 474.584 1365.9 464.865 1374.18 456.751 1382.45 448.653 1390.72 445.385 1398.99 443.722 1407.26 443.679 1415.53 446.861 1423.8 451.663 1432.08 458.071 1440.35 466.083 1448.62 474.111 1448.77 474.283" stroke="#000000" stroke-width="2.22351" stroke-linejoin="round" stroke-miterlimit="10" fill="none" fill-rule="evenodd" transform="matrix(1 0 0 1.00035 -169.635 -66.4355)"/><path d="M216.17 420.794 224.441 422.143 232.713 423.832 240.984 425.266 249.256 426.618 257.527 427.718 265.799 428.478 274.07 428.478 282.342 428.054 290.613 427.21 298.885 425.014 307.156 421.215 315.428 414.377 323.699 404.25 331.971 389.902 340.242 371.925 348.514 350.824 356.785 328.54 365.056 307.187 373.328 290.732 381.599 280.942 389.871 277.905 398.142 281.788 406.414 292.252 414.685 308.795 422.957 330.064 431.228 354.286 439.5 379.436 447.771 405.686 456.043 431.513 464.314 454.388 472.586 472.449 480.857 484.769 489.129 492.449 497.4 495.572 505.671 495.911 513.943 494.221 522.214 492.027 530.486 489.917 538.757 487.894 547.029 485.953 555.3 482.914 563.572 479.282 571.843 473.542 580.115 466.623 588.386 457.337 596.658 446.621 604.929 434.467 613.201 421.384 621.472 409.061 629.744 398.342 638.015 389.903 646.286 383.74 654.558 381.041 662.829 381.462 671.101 384.67 679.372 389.989 687.644 396.404 695.915 403.83 704.187 411.678 712.458 419.611 720.73 427.206 729.001 434.13 737.273 440.545 745.544 445.61 753.816 449.071 762.087 450.845 770.359 450.676 778.63 448.902 786.901 445.692 795.173 441.808 803.444 437.671 811.716 434.126 819.987 431.257 828.259 429.063 836.53 428.22 844.802 427.46 853.073 427.376 861.345 426.955 869.616 426.279 877.888 425.772 886.159 425.434 894.431 425.264 902.702 425.264 910.974 425.858 919.245 426.283 927.516 427.21 935.788 428.141 944.059 428.564 952.331 428.477 960.602 427.97 968.874 426.787 977.145 424.758 985.417 421.468 993.688 416.322 1001.96 409.736 1010.23 400.62 1018.5 387.962 1026.77 371.839 1035.05 352.345 1043.32 330.653 1051.59 308.792 1059.86 289.045 1068.13 274.024 1076.4 266.175 1084.67 266.763 1092.95 275.961 1101.22 293.683 1109.49 317.737 1117.76 345.505 1126.03 374.961 1134.3 404.08 1142.57 431.511 1150.85 454.978 1159.12 473.8 1167.39 487.556 1175.66 496.84 1183.93 501.735 1192.2 502.833 1200.48 500.47 1208.75 495.911 1217.02 490.761 1225.29 485.274 1233.56 480.127 1241.83 475.231 1250.1 470.591 1258.38 465.526 1266.65 459.869 1274.92 453.119 1283.19 444.424 1291.46 434.633 1299.73 424.253 1308 414.213 1316.28 405.437 1324.55 398.011 1332.82 392.609 1341.09 389.23 1349.36 388.049 1357.63 388.893 1365.9 391.59 1374.18 395.809 1382.45 401.38 1390.72 407.965 1398.99 414.718 1407.26 421.468 1415.53 427.712 1423.8 432.946 1432.08 437.505 1440.35 441.472 1448.62 444.257 1448.77 444.291" stroke="#000000" stroke-width="1.66764" stroke-linejoin="bevel" stroke-miterlimit="1" stroke-dasharray="6.67054 6.67054" fill="none" fill-rule="evenodd" transform="matrix(1 0 0 1.00035 -169.635 -66.4355)"/><path d="M216.17 475.273 224.441 476.346 232.713 476.821 240.984 476.634 249.256 475.623 257.527 473.965 265.799 471.551 274.07 468.278 282.342 463.438 290.613 456.555 298.885 447.035 307.156 434.811 315.428 420.1 323.699 404.174 331.971 389.13 340.242 377.946 348.514 373.561 356.785 377.564 365.056 390.619 373.328 411.942 381.599 439.868 389.871 471.607 398.142 503.902 406.414 533.346 414.685 558.369 422.957 577.98 431.228 590.96 439.5 596.369 447.771 593.817 456.043 584.206 464.314 568.808 472.586 549.567 480.857 528.303 489.129 507.727 497.4 490.217 505.671 476.984 513.943 468.13 522.214 462.485 530.486 459.138 538.757 456.31 547.029 453.13 555.3 448.493 563.572 442.343 571.843 434.964 580.115 426.96 588.386 419.628 596.658 413.975 604.929 411.239 613.201 411.72 621.472 416.168 629.744 424.261 638.015 435.492 646.286 448.728 654.558 462.387 662.829 475.426 671.101 486.95 679.372 496.348 687.644 503.055 695.915 507.148 704.187 508.979 712.458 508.777 720.73 506.743 729.001 502.931 737.273 497.513 745.544 490.781 753.816 483.122 762.087 475.137 770.359 467.462 778.63 461.069 786.901 456.485 795.173 453.946 803.444 453.684 811.716 455.095 819.987 457.758 828.259 460.759 836.53 463.458 844.802 465.515 853.073 466.931 861.345 467.781 869.616 468.187 877.888 468.768 886.159 469.373 894.431 470.376 902.702 471.539 910.974 472.446 919.245 472.89 927.516 472.761 935.788 471.907 944.059 470.192 952.331 467.613 960.602 463.776 968.874 458.891 977.145 452.726 985.417 444.686 993.688 434.474 1001.96 422.129 1010.23 408.262 1018.5 394.264 1026.77 382.1 1035.05 374.097 1043.32 373.058 1051.59 380.979 1059.86 398.488 1068.13 425.129 1076.4 458.637 1084.67 495.47 1092.95 531.737 1101.22 563.677 1109.49 588.442 1117.76 604.017 1126.03 609.715 1134.3 605.946 1142.57 594.518 1150.85 577.43 1159.12 556.701 1167.39 534.231 1175.66 511.927 1183.93 491.831 1192.2 474.962 1200.48 461.954 1208.75 452.773 1217.02 447.181 1225.29 444.31 1233.56 443.142 1241.83 442.344 1250.1 440.633 1258.38 437.723 1266.65 433.667 1274.92 429.177 1283.19 425.251 1291.46 422.834 1299.73 422.708 1308 425.36 1316.28 430.885 1324.55 438.639 1332.82 447.944 1341.09 457.965 1349.36 468.034 1357.63 477.681 1365.9 486.2 1374.18 493.225 1382.45 498.396 1390.72 501.472 1398.99 502.543 1407.26 501.895 1415.53 499.671 1423.8 496.302 1432.08 492.293 1440.35 487.869 1448.62 483.28 1448.77 483.195" stroke="#000000" stroke-width="1.66764" stroke-linejoin="bevel" stroke-miterlimit="1" stroke-dasharray="1.66764 1.66764" fill="none" fill-rule="evenodd" transform="matrix(1 0 0 1.00035 -169.635 -66.4355)"/><path d="M216.17 476.712 224.441 473.782 232.713 470.596 240.984 467.24 249.256 463.514 257.527 459.093 265.799 453.555 274.07 446.642 282.342 438.309 290.613 429 298.885 419.929 307.156 413.097 315.428 411.034 323.699 415.882 331.971 429.011 340.242 450.418 348.514 478.669 356.785 510.781 365.056 542.736 373.328 570.126 381.599 589.526 389.871 599.026 398.142 597.942 406.414 586.757 414.685 566.84 422.957 540.478 431.228 510.343 439.5 479.192 447.771 449.36 456.043 423.349 464.314 403.623 472.586 391.862 480.857 388.535 489.129 392.63 497.4 402.308 505.671 414.923 513.943 427.822 522.214 438.451 530.486 445.271 538.757 447.964 547.029 447.228 555.3 444.608 563.572 441.803 571.843 440.661 580.115 442.37 588.386 447.791 596.658 456.899 604.929 469.074 613.201 483.078 621.472 497.15 629.744 509.63 638.015 519.078 646.286 524.606 654.558 525.672 662.829 522.526 671.101 515.93 679.372 506.988 687.644 496.83 695.915 486.274 704.187 475.956 712.458 466.325 720.73 457.695 729.001 450.248 737.273 444.214 745.544 440.039 753.816 438.145 762.087 438.804 770.359 442.075 778.63 447.566 786.901 454.608 795.173 462.187 803.444 469.225 811.716 474.789 819.987 478.407 828.259 479.999 836.53 479.803 844.802 478.551 853.073 476.851 861.345 475.394 869.616 474.5 877.888 474.112 886.159 473.97 894.431 473.762 902.702 473.156 910.974 471.835 919.245 469.762 927.516 466.796 935.788 463.117 944.059 458.851 952.331 453.88 960.602 448.041 968.874 441.276 977.145 433.782 985.417 426.215 993.688 419.797 1001.96 416.119 1010.23 417.322 1018.5 425.449 1026.77 441.691 1035.05 466.056 1043.32 496.944 1051.59 531.145 1059.86 564.378 1068.13 591.977 1076.4 609.787 1084.67 615.035 1092.95 606.825 1101.22 586.129 1109.49 555.851 1117.76 519.966 1126.03 482.68 1134.3 447.808 1142.57 418.368 1150.85 396.53 1159.12 383.24 1167.39 378.378 1175.66 380.881 1183.93 389.267 1192.2 401.679 1200.48 416.072 1208.75 430.308 1217.02 442.429 1225.29 451.288 1233.56 456.437 1241.83 458.254 1250.1 457.768 1258.38 456.476 1266.65 455.94 1274.92 457.511 1283.19 461.949 1291.46 469.097 1299.73 478.214 1308 488.098 1316.28 497.464 1324.55 505.241 1332.82 510.586 1341.09 513.064 1349.36 512.621 1357.63 509.533 1365.9 504.246 1374.18 497.364 1382.45 489.465 1390.72 481.178 1398.99 473.206 1407.26 466.056 1415.53 460.111 1423.8 455.511 1432.08 452.143 1440.35 449.845 1448.62 448.495 1448.77 448.485" stroke="#000000" stroke-width="1.66764" stroke-linejoin="bevel" stroke-miterlimit="1" stroke-dasharray="6.67054 1.66764 3.33527 1.66764" fill="none" fill-rule="evenodd" transform="matrix(1 0 0 1.00035 -169.635 -66.4355)"/><path d="M1436.95 215.125 1436.95 72.2642 1320.21 72.2642 1320.21 215.125Z" fill="#FFFFFF" transform="matrix(1 0 0 1.00035 -169.635 -66.4355)"/><text font-family="Arial,Arial_MSFontService,sans-serif" font-weight="400" font-size="50" transform="matrix(0.555878 0 0 0.556073 1189.86 36)">PPG</text><path d="M1323.55 91.2197 1356.99 91.2197" stroke="#000000" stroke-width="2.22351" stroke-linejoin="round" stroke-miterlimit="10" fill="none" transform="matrix(1 0 0 1.00035 -169.635 -66.4355)"/><text font-family="Arial,Arial_MSFontService,sans-serif" font-weight="400" font-size="50" transform="matrix(0.555878 0 0 0.556073 1189.86 71)">PPG<tspan font-size="50" x="105" y="0">'</tspan></text><path d="M1323.55 126.203 1356.99 126.203" stroke="#000000" stroke-width="1.66764" stroke-linejoin="bevel" stroke-miterlimit="1" stroke-dasharray="6.67054 6.67054" fill="none" transform="matrix(1 0 0 1.00035 -169.635 -66.4355)"/><text font-family="Arial,Arial_MSFontService,sans-serif" font-weight="400" font-size="50" transform="matrix(0.555878 0 0 0.556073 1189.86 106)">PPG<tspan font-size="50" x="105" y="0">"</tspan></text><path d="M1323.55 161.186 1356.99 161.186" stroke="#000000" stroke-width="1.66764" stroke-linejoin="bevel" stroke-miterlimit="1" stroke-dasharray="1.66764 1.66764" fill="none" transform="matrix(1 0 0 1.00035 -169.635 -66.4355)"/><text font-family="Arial,Arial_MSFontService,sans-serif" font-weight="400" font-size="50" transform="matrix(0.555878 0 0 0.556073 1189.86 141)">PPG<tspan font-size="50" x="105" y="0">'</tspan><tspan font-size="50" x="115" y="0">"</tspan></text><path d="M1323.55 196.17 1356.99 196.17" stroke="#000000" stroke-width="1.66764" stroke-linejoin="bevel" stroke-miterlimit="1" stroke-dasharray="6.67054 1.66764 3.33527 1.66764" fill="none" transform="matrix(1 0 0 1.00035 -169.635 -66.4355)"/><path d="M1320.21 215.125 1320.21 72.2642 1436.95 72.2642 1436.95 215.125Z" stroke="#262626" stroke-width="0.555878" stroke-miterlimit="10" fill="none" fill-rule="evenodd" transform="matrix(1 0 0 1.00035 -169.635 -66.4355)"/><text font-family="Calibri,Calibri_MSFontService,sans-serif" font-weight="700" font-size="19" transform="translate(166.455 652)">Systolic Peak<tspan font-size="19" x="14.92" y="23">Time (</tspan><tspan font-size="19" x="63.2533" y="23">T</tspan><tspan font-size="12" x="71.18" y="27">sp</tspan><tspan font-size="19" x="82.8467" y="23">)</tspan><tspan font-size="40" x="692.717" y="-311">a</tspan><tspan font-size="40" x="780.635" y="-126">b</tspan><tspan font-size="40" x="878.364" y="-283">c</tspan><tspan font-size="40" x="904.284" y="-291">d</tspan><tspan font-size="40" x="731.963" y="-470">u</tspan><tspan font-size="40" x="842.843" y="-187">v</tspan></text><path d="M288.166 72.0001 958.154 72.0002 958.154 73.0002 288.166 73.0001ZM289.5 76.5001 281.5 72.5001 289.5 68.5001ZM956.82 68.5002 964.82 72.5002 956.82 76.5002Z"/><path d="M964.5 65.5001 964.5 84.7001" stroke="#000000" stroke-width="0.666667" stroke-miterlimit="8" stroke-dasharray="0.666667 0.666667" fill="none" fill-rule="evenodd"/><path d="M156.5 563.5 156.5 645.1" stroke="#000000" stroke-width="0.666667" stroke-miterlimit="8" stroke-dasharray="0.666667 0.666667" fill="none" fill-rule="evenodd"/><path d="M163.167 639 271.006 639 271.006 640 163.167 640ZM164.5 643.5 156.5 639.5 164.5 635.5ZM269.673 635.5 277.673 639.5 269.673 643.5Z"/><path d="M453.165 590 827.674 590 827.674 591 453.165 591ZM454.5 594.5 446.5 590.5 454.5 586.5ZM826.34 586.5 834.34 590.5 826.34 594.5Z"/><path d="M0.500002 6.66702 0.500103 443.085-0.499897 443.085-0.499998 6.66702ZM-4 8 0 0 4 8ZM4.0001 441.752 0.000104987 449.752-3.9999 441.752Z" transform="matrix(1 0 0 -1 279.5 565.252)"/><path d="M227.168 339.015 272.28 339.113 272.277 340.113 227.166 340.015ZM228.491 343.518 220.5 339.5 228.509 335.518ZM270.954 335.61 278.945 339.628 270.936 343.61Z"/><path d="M6.6681-0.479947 81.1943-0.255797 81.1913 0.744199 6.66509 0.520049ZM7.98793 4.02404 0 0 8.01199-3.97592ZM79.8714-3.75979 87.8593 0.264252 79.8473 4.24017Z" transform="matrix(1 0 0 -1 279.5 339.764)"/><text font-family="Calibri,Calibri_MSFontService,sans-serif" font-weight="700" font-size="19" transform="translate(525.194 88)">Peak<tspan font-size="19" x="37.2" y="0">-</tspan><tspan font-size="19" x="42.8666" y="0">to</tspan><tspan font-size="19" x="59.1866" y="0">-</tspan><tspan font-size="19" x="64.8533" y="0">Peak Interval (</tspan><tspan font-size="21" x="175.88" y="0">T</tspan><tspan font-size="14" x="185.287" y="4">pp</tspan><tspan font-size="19" x="200.62" y="0">)</tspan><tspan font-size="19" x="26.6653" y="519">Diastolic Time (</tspan><tspan font-size="21" x="145.612" y="519">T</tspan><tspan font-size="14" x="154.572" y="523">dia</tspan><tspan font-size="19" x="172.739" y="519">)</tspan><tspan fill="#404040" font-size="19" x="-435.562" y="100">Systolic Width </tspan><tspan fill="#404040" font-size="19" x="-434.282" y="125">at 50% (</tspan><tspan font-size="21" x="-371.956" y="125">T</tspan><tspan font-size="14" x="-362.876" y="129">sw50</tspan><tspan fill="#404040" font-size="19" x="-332.276" y="125">)</tspan><tspan fill="#404040" font-size="19" x="-168.726" y="180">Diastolic Width </tspan><tspan fill="#404040" font-size="19" x="-164.232" y="205">at 50% (</tspan><tspan font-size="21" x="-101.906" y="205">T</tspan><tspan font-size="14" x="-92.9456" y="209">dw50</tspan><tspan fill="#404040" font-size="19" x="-60.2789" y="205">)</tspan><tspan fill="#404040" font-size="19" x="-166.508" y="83">Systolic Peak </tspan><tspan fill="#404040" font-size="19" x="-178.708" y="108">Amplitude (</tspan><tspan font-size="21" x="-87.0413" y="108">A</tspan><tspan font-size="14" x="-74.0413" y="112">sp</tspan><tspan fill="#404040" font-size="19" x="-60.708" y="108">)</tspan></text><path d="M163.166 565 829.224 565 829.224 566 163.166 566ZM164.5 569.5 156.5 565.5 164.5 561.5ZM827.89 561.5 835.89 565.5 827.89 569.5Z"/><text font-family="Calibri,Calibri_MSFontService,sans-serif" font-weight="700" font-size="19" transform="translate(397.662 581)">Pulse Interval (<tspan font-size="21" x="115.327" y="0">T</tspan><tspan font-size="14" x="124.733" y="4">pi</tspan><tspan font-size="19" x="135.9" y="0">)</tspan></text><path d="M0 0 58.8273 69.3028" stroke="#000000" stroke-width="0.666667" stroke-miterlimit="8" stroke-dasharray="0.666667 0.666667" fill="none" fill-rule="evenodd" transform="matrix(-1 0 0 1 337.327 183.5)"/><path d="M147.5 222.5 258.246 340.259" stroke="#000000" stroke-width="0.666667" stroke-miterlimit="8" stroke-dasharray="0.666667 0.666667" fill="none" fill-rule="evenodd"/><path d="M0 0 42.7407 59.3237" stroke="#000000" stroke-width="0.666667" stroke-miterlimit="8" stroke-dasharray="0.666667 0.666667" fill="none" fill-rule="evenodd" transform="matrix(-1 0 0 1 360.241 278.5)"/><text font-family="Calibri,Calibri_MSFontService,sans-serif" font-weight="700" font-size="40" transform="translate(1111.84 342)">e</text><path d="M835.5 565.5 835.5 599.1" stroke="#000000" stroke-width="0.666667" stroke-miterlimit="8" stroke-dasharray="0.666667 0.666667" fill="none" fill-rule="evenodd"/><path d="M864.5 306C864.5 302.962 866.963 300.5 870 300.5 873.038 300.5 875.5 302.962 875.5 306 875.5 309.038 873.038 311.5 870 311.5 866.963 311.5 864.5 309.038 864.5 306Z" stroke="#000000" stroke-width="3" stroke-miterlimit="8" fill="#18D82A" fill-rule="evenodd"/><path d="M953.5 541.5C953.5 538.739 955.739 536.5 958.5 536.5 961.261 536.5 963.5 538.739 963.5 541.5 963.5 544.261 961.261 546.5 958.5 546.5 955.739 546.5 953.5 544.261 953.5 541.5Z" stroke="#000000" stroke-width="3" stroke-miterlimit="8" fill="#18D82A" fill-rule="evenodd"/><path d="M1068.5 373C1068.5 369.962 1070.96 367.5 1074 367.5 1077.04 367.5 1079.5 369.962 1079.5 373 1079.5 376.038 1077.04 378.5 1074 378.5 1070.96 378.5 1068.5 376.038 1068.5 373Z" stroke="#000000" stroke-width="3" stroke-miterlimit="8" fill="#18D82A" fill-rule="evenodd"/><path d="M1119.5 355C1119.5 351.962 1121.96 349.5 1125 349.5 1128.04 349.5 1130.5 351.962 1130.5 355 1130.5 358.038 1128.04 360.5 1125 360.5 1121.96 360.5 1119.5 358.038 1119.5 355Z" stroke="#000000" stroke-width="3" stroke-miterlimit="8" fill="#18D82A" fill-rule="evenodd"/><path d="M904.5 199C904.5 195.962 906.963 193.5 910 193.5 913.038 193.5 915.5 195.962 915.5 199 915.5 202.038 913.038 204.5 910 204.5 906.963 204.5 904.5 202.038 904.5 199Z" stroke="#000000" stroke-width="3" stroke-miterlimit="8" fill="#00B0F0" fill-rule="evenodd"/><path d="M1009.5 434C1009.5 430.962 1011.74 428.5 1014.5 428.5 1017.26 428.5 1019.5 430.962 1019.5 434 1019.5 437.038 1017.26 439.5 1014.5 439.5 1011.74 439.5 1009.5 437.038 1009.5 434Z" stroke="#000000" stroke-width="3" stroke-miterlimit="8" fill="#00B0F0" fill-rule="evenodd"/><path d="M1226.5 435.5C1226.5 432.739 1228.74 430.5 1231.5 430.5 1234.26 430.5 1236.5 432.739 1236.5 435.5 1236.5 438.261 1234.26 440.5 1231.5 440.5 1228.74 440.5 1226.5 438.261 1226.5 435.5Z" stroke="#000000" stroke-width="3" stroke-miterlimit="8" fill="#18D82A" fill-rule="evenodd"/><path d="M1175.5 320.5C1175.5 317.739 1177.74 315.5 1180.5 315.5 1183.26 315.5 1185.5 317.739 1185.5 320.5 1185.5 323.261 1183.26 325.5 1180.5 325.5 1177.74 325.5 1175.5 323.261 1175.5 320.5Z" stroke="#000000" stroke-width="3" stroke-miterlimit="8" fill="#00B0F0" fill-rule="evenodd"/><text font-family="Calibri,Calibri_MSFontService,sans-serif" font-weight="700" font-size="40" transform="translate(1167.48 353)">w<tspan font-size="40" x="56.3237" y="124">f</tspan></text><path d="M274.5 112.5C274.5 109.739 276.962 107.5 280 107.5 283.038 107.5 285.5 109.739 285.5 112.5 285.5 115.261 283.038 117.5 280 117.5 276.962 117.5 274.5 115.261 274.5 112.5Z" stroke="#000000" stroke-width="3" stroke-miterlimit="8" fill="#FF0000" fill-rule="evenodd"/><text font-family="Calibri,Calibri_MSFontService,sans-serif" font-weight="700" font-size="40" transform="translate(229.524 101)">sp<tspan font-size="40" x="-101.54" y="442">on</tspan><tspan font-size="40" x="576.481" y="447">off</tspan><tspan font-size="40" x="262.066" y="285">dp</tspan><tspan font-size="40" x="194.581" y="369">dn</tspan></text><path d="M540 558.322 540 405.167 541 405.167 541 558.322ZM544.5 556.988 540.5 564.988 536.5 556.988ZM536.5 406.5 540.5 398.5 544.5 406.5Z"/><path d="M150.5 556.5C150.5 553.739 152.962 551.5 156 551.5 159.038 551.5 161.5 553.739 161.5 556.5 161.5 559.261 159.038 561.5 156 561.5 152.962 561.5 150.5 559.261 150.5 556.5Z" stroke="#000000" stroke-width="3" stroke-miterlimit="8" fill="#FF0000" fill-rule="evenodd"/><path d="M439.5 486.5C439.5 483.739 441.739 481.5 444.5 481.5 447.261 481.5 449.5 483.739 449.5 486.5 449.5 489.261 447.261 491.5 444.5 491.5 441.739 491.5 439.5 489.261 439.5 486.5Z" stroke="#000000" stroke-width="3" stroke-miterlimit="8" fill="#FF0000" fill-rule="evenodd"/><path d="M535.5 393C535.5 389.962 537.739 387.5 540.5 387.5 543.261 387.5 545.5 389.962 545.5 393 545.5 396.038 543.261 398.5 540.5 398.5 537.739 398.5 535.5 396.038 535.5 393Z" stroke="#000000" stroke-width="3" stroke-miterlimit="8" fill="#FF0000" fill-rule="evenodd"/><path d="M829.5 558.5C829.5 555.739 831.963 553.5 835 553.5 838.038 553.5 840.5 555.739 840.5 558.5 840.5 561.261 838.038 563.5 835 563.5 831.963 563.5 829.5 561.261 829.5 558.5Z" stroke="#000000" stroke-width="3" stroke-miterlimit="8" fill="#FF0000" fill-rule="evenodd"/><path d="M288.167 100 533.896 100 533.896 101 288.167 101ZM289.5 104.5 281.5 100.5 289.5 96.5001ZM532.562 96.5002 540.562 100.5 532.562 104.5Z"/><path d="M540.5 91.5001 540.5 389.1" stroke="#000000" stroke-width="0.666667" stroke-miterlimit="8" stroke-dasharray="0.666667 0.666667" fill="none" fill-rule="evenodd"/><text font-family="Calibri,Calibri_MSFontService,sans-serif" font-weight="700" font-size="19" transform="translate(334.505 120)">Time Delay (<tspan font-size="19" x="95.9933" y="0">delta</tspan><tspan font-size="21" x="135.48" y="0">T</tspan>)</text><path d="M994.5 312.5C994.5 309.739 996.739 307.5 999.5 307.5 1002.26 307.5 1004.5 309.739 1004.5 312.5 1004.5 315.261 1002.26 317.5 999.5 317.5 996.739 317.5 994.5 315.261 994.5 312.5Z" stroke="#000000" stroke-width="3" stroke-miterlimit="8" fill="#F44ADC" fill-rule="evenodd"/><path d="M1061.5 392C1061.5 388.962 1063.96 386.5 1067 386.5 1070.04 386.5 1072.5 388.962 1072.5 392 1072.5 395.038 1070.04 397.5 1067 397.5 1063.96 397.5 1061.5 395.038 1061.5 392Z" stroke="#000000" stroke-width="3" stroke-miterlimit="8" fill="#F44ADC" fill-rule="evenodd"/><text font-family="Calibri,Calibri_MSFontService,sans-serif" font-weight="700" font-size="40" transform="translate(986.47 291)">p<tspan font-size="27" x="21.5" y="9">1</tspan><tspan font-size="40" x="66.316" y="128">p</tspan><tspan font-size="27" x="87.816" y="137">2</tspan></text><path d="M280.5 67.5001 280.5 105.9" stroke="#000000" stroke-width="0.666667" stroke-miterlimit="8" stroke-dasharray="0.666667 0.666667" fill="none" fill-rule="evenodd"/><path d="M279.5 563.5 279.5 645.1" stroke="#000000" stroke-width="0.666667" stroke-miterlimit="8" stroke-dasharray="0.666667 0.666667" fill="none" fill-rule="evenodd"/><path d="M445 557.793 445 498.167 446 498.167 446 557.793ZM449.5 556.46 445.5 564.46 441.5 556.46ZM441.5 499.5 445.5 491.5 449.5 499.5Z"/><text fill="#404040" font-family="Calibri,Calibri_MSFontService,sans-serif" font-weight="700" font-size="19" transform="translate(553.067 514)">Diastolic Peak <tspan font-size="19" x="-9.00671" y="25">Amplitude (</tspan><tspan fill="#000000" font-size="21" x="82.66" y="25">A</tspan><tspan fill="#000000" font-size="14" x="95.66" y="29">dp</tspan><tspan font-size="19" x="110.993" y="25">)</tspan><tspan font-size="19" x="-230.43" y="1">Dicrotic Notch </tspan><tspan font-size="19" x="-238.163" y="26">Amplitude (</tspan><tspan fill="#000000" font-size="21" x="-146.497" y="26">A</tspan><tspan fill="#000000" font-size="14" x="-133.497" y="30">dn</tspan><tspan font-size="19" x="-118.163" y="26">)</tspan></text><path d="M163.167 590 438.77 590 438.77 591 163.167 591ZM164.5 594.5 156.5 590.5 164.5 586.5ZM437.437 586.5 445.437 590.5 437.437 594.5Z"/><path d="M540.5 567.5 540.5 620.3" stroke="#000000" stroke-width="0.666667" stroke-miterlimit="8" stroke-dasharray="0.666667 0.666667" fill="none" fill-rule="evenodd"/><path d="M445.5 567.5 445.5 596" stroke="#000000" stroke-width="0.666667" stroke-miterlimit="8" stroke-dasharray="0.666667 0.666667" fill="none" fill-rule="evenodd"/><path d="M163.165 614 533.834 614 533.834 615 163.165 615ZM164.5 618.5 156.5 614.5 164.5 610.5ZM532.5 610.5 540.5 614.5 532.5 618.5Z"/><text font-family="Calibri,Calibri_MSFontService,sans-serif" font-weight="700" font-size="19" transform="translate(212.171 607)">Systolic Time (<tspan font-size="21" x="110.56" y="0">T</tspan><tspan font-size="14" x="119.64" y="4">sys</tspan><tspan font-size="19" x="137.333" y="0">)</tspan><tspan font-size="19" x="52.8217" y="24">Diastolic Peak Time (</tspan><tspan font-size="21" x="213.135" y="24">T</tspan><tspan font-size="14" x="222.095" y="28">dp</tspan><tspan font-size="19" x="237.428" y="24">)</tspan><tspan font-size="40" x="693.222" y="-498">sp</tspan></text><path d="M959.5 91.5001C959.5 88.7386 961.963 86.5001 965 86.5001 968.038 86.5001 970.5 88.7386 970.5 91.5001 970.5 94.2615 968.038 96.5001 965 96.5001 961.963 96.5001 959.5 94.2615 959.5 91.5001Z" stroke="#000000" stroke-width="3" stroke-miterlimit="8" fill="#FF0000" fill-rule="evenodd"/></g></svg>