<svg width="1280" height="720" xmlns="http://www.w3.org/2000/svg" xmlns:xlink="http://www.w3.org/1999/xlink" overflow="hidden"><defs><clipPath id="clip0"><rect x="0" y="0" width="1280" height="720"/></clipPath></defs><g clip-path="url(#clip0)"><rect x="0" y="0" width="1280" height="720" fill="#FFFFFF"/><path d="M0 0 1583.17 0 1583.17 799.831 0 799.831Z" fill="#FFFFFF" transform="matrix(1.01825 0 0 1 -172.121 -58.9076)"/><path d="M0 0 1583.17 0 1583.17 799.831 0 799.831Z" fill="#FFFFFF" transform="matrix(1.01825 0 0 1 -172.121 -58.9076)"/><path d="M205.592 711.877 1432.55 711.877 1432.55 59.9186 205.592 59.9186Z" fill="#FFFFFF" transform="matrix(1.01825 0 0 1 -172.121 -58.9076)"/><path d="M205.592 711.877 1432.55 711.877" stroke="#262626" stroke-width="0.549712" stroke-linecap="square" stroke-linejoin="round" stroke-miterlimit="10" fill="none" transform="matrix(1.01825 0 0 1 -172.121 -58.9076)"/><path d="M205.592 711.877 205.592 699.608" stroke="#262626" stroke-width="0.549712" stroke-linecap="square" stroke-linejoin="round" stroke-miterlimit="10" fill="none" transform="matrix(1.01825 0 0 1 -172.121 -58.9076)"/><path d="M716.825 711.877 716.825 699.608" stroke="#262626" stroke-width="0.549712" stroke-linecap="square" stroke-linejoin="round" stroke-miterlimit="10" fill="none" transform="matrix(1.01825 0 0 1 -172.121 -58.9076)"/><path d="M1228.06 711.877 1228.06 699.608" stroke="#262626" stroke-width="0.549712" stroke-linecap="square" stroke-linejoin="round" stroke-miterlimit="10" fill="none" transform="matrix(1.01825 0 0 1 -172.121 -58.9076)"/><text fill="#262626" font-family="Arial,Arial_MSFontService,sans-serif" font-weight="400" font-size="40" transform="matrix(0.559747 0 0 0.549712 30.7874 683)">0<tspan font-size="40" x="908" y="0">500</tspan><tspan font-size="40" x="1827" y="0">1000</tspan><tspan font-size="44" x="1030.5" y="56.3932">Time </tspan><tspan font-size="44" x="1138.5" y="56.3932">[</tspan><tspan font-size="44" x="1150.5" y="56.3932">ms</tspan><tspan font-size="44" x="1210.5" y="56.3932">]</tspan></text><path d="M205.592 711.877 205.592 59.9186" stroke="#262626" stroke-width="0.549712" stroke-linecap="square" stroke-linejoin="round" stroke-miterlimit="10" fill="none" transform="matrix(1.01825 0 0 1 -172.121 -58.9076)"/><path d="M205.592 711.877 217.862 711.877" stroke="#262626" stroke-width="0.549712" stroke-linecap="square" stroke-linejoin="round" stroke-miterlimit="10" fill="none" transform="matrix(1.01825 0 0 1 -172.121 -58.9076)"/><path d="M205.592 618.74 217.862 618.74" stroke="#262626" stroke-width="0.549712" stroke-linecap="square" stroke-linejoin="round" stroke-miterlimit="10" fill="none" transform="matrix(1.01825 0 0 1 -172.121 -58.9076)"/><path d="M205.592 525.603 217.862 525.603" stroke="#262626" stroke-width="0.549712" stroke-linecap="square" stroke-linejoin="round" stroke-miterlimit="10" fill="none" transform="matrix(1.01825 0 0 1 -172.121 -58.9076)"/><path d="M205.592 432.466 217.862 432.466" stroke="#262626" stroke-width="0.549712" stroke-linecap="square" stroke-linejoin="round" stroke-miterlimit="10" fill="none" transform="matrix(1.01825 0 0 1 -172.121 -58.9076)"/><path d="M205.592 339.329 217.862 339.329" stroke="#262626" stroke-width="0.549712" stroke-linecap="square" stroke-linejoin="round" stroke-miterlimit="10" fill="none" transform="matrix(1.01825 0 0 1 -172.121 -58.9076)"/><path d="M205.592 246.192 217.862 246.192" stroke="#262626" stroke-width="0.549712" stroke-linecap="square" stroke-linejoin="round" stroke-miterlimit="10" fill="none" transform="matrix(1.01825 0 0 1 -172.121 -58.9076)"/><path d="M205.592 153.056 217.862 153.056" stroke="#262626" stroke-width="0.549712" stroke-linecap="square" stroke-linejoin="round" stroke-miterlimit="10" fill="none" transform="matrix(1.01825 0 0 1 -172.121 -58.9076)"/><path d="M205.592 59.9186 217.862 59.9186" stroke="#262626" stroke-width="0.549712" stroke-linecap="square" stroke-linejoin="round" stroke-miterlimit="10" fill="none" transform="matrix(1.01825 0 0 1 -172.121 -58.9076)"/><text fill="#262626" font-family="Arial,Arial_MSFontService,sans-serif" font-weight="400" font-size="40" transform="matrix(3.42746e-17 -0.549712 0.559747 3.36602e-17 20.2455 397)">Amplitude <tspan font-size="40" x="185.552" y="-1.13618e-14">[</tspan><tspan font-size="40" x="196.466" y="-1.20301e-14">nu</tspan><tspan font-size="40" x="238.307" y="-1.45921e-14">]</tspan></text><path d="M213.772 582.055 221.952 583.599 230.131 585.159 238.311 586.704 246.491 589.851 254.671 592.997 262.85 597.747 271.03 600.893 279.21 605.643 287.389 608.789 295.569 611.936 303.749 613.481 311.929 616.628 320.108 618.187 328.288 614.956 336.468 606.932 344.648 590.943 352.827 566.972 361.007 533.433 369.187 493.516 377.366 447.22 385.546 396.132 393.726 343.457 401.906 301.953 410.085 265.225 418.265 231.686 426.445 204.526 434.624 186.934 442.804 178.926 450.984 180.471 459.164 191.599 467.343 210.692 475.523 234.578 483.703 261.653 491.882 288.727 500.062 314.2 508.242 336.483 516.422 361.956 524.601 384.254 532.781 408.139 540.961 428.82 549.14 451.118 557.32 471.799 565.5 490.908 573.68 510.002 581.859 525.906 590.039 538.621 598.219 544.958 606.398 549.707 614.578 548.062 622.758 543.243 630.938 533.632 639.117 520.817 647.297 508.017 655.477 495.217 663.656 482.417 671.836 471.204 680.016 463.196 688.196 458.361 696.375 455.129 704.555 455.087 712.735 456.647 720.914 461.381 729.094 467.717 737.274 477.243 745.454 488.37 753.633 499.498 761.813 512.213 769.993 523.341 778.172 532.867 786.352 542.393 794.532 548.729 802.712 555.065 810.891 558.212 819.071 561.359 827.251 564.506 835.43 567.652 843.61 570.799 851.79 573.946 859.97 578.695 868.149 580.24 876.329 583.387 884.509 584.947 892.689 586.491 900.868 589.638 909.048 592.785 917.228 595.932 925.407 599.078 933.587 602.241 941.767 605.387 949.946 610.121 958.126 614.87 966.306 618.017 974.486 619.562 982.665 621.122 990.845 621.079 999.025 619.434 1007.2 614.615 1015.38 605.005 1023.56 592.189 1031.74 569.821 1039.92 537.885 1048.1 499.555 1056.28 451.671 1064.46 398.981 1072.64 344.719 1080.82 292.044 1089 245.748 1097.18 205.831 1105.36 177.069 1113.54 159.477 1121.72 153.056 1129.9 156.202 1138.08 165.743 1146.26 183.235 1154.44 207.12 1162.62 235.782 1170.8 264.459 1178.98 293.121 1187.16 320.196 1195.34 347.271 1203.52 371.156 1211.7 395.026 1219.88 414.135 1228.06 431.627 1236.24 449.133 1244.42 465.038 1252.6 480.957 1260.78 495.26 1268.96 506.387 1277.14 514.311 1285.31 517.458 1293.49 519.017 1301.67 514.183 1309.85 507.762 1318.03 499.754 1326.21 490.143 1334.39 480.532 1342.57 469.319 1350.75 459.709 1358.93 451.685 1367.11 443.677 1375.29 440.445 1383.47 438.8 1391.65 438.757 1399.83 441.904 1408.01 446.653 1416.19 452.99 1424.37 460.913 1432.55 468.851 1432.7 469.022" stroke="#000000" stroke-width="2.19885" stroke-linejoin="round" stroke-miterlimit="10" fill="none" fill-rule="evenodd" transform="matrix(1.01825 0 0 1 -172.121 -58.9076)"/><path d="M213.772 416.126 221.952 417.46 230.131 419.13 238.311 420.549 246.491 421.886 254.671 422.974 262.85 423.725 271.03 423.725 279.21 423.306 287.389 422.471 295.569 420.299 303.749 416.542 311.929 409.781 320.108 399.765 328.288 385.577 336.468 367.799 344.648 346.932 352.827 324.896 361.007 303.779 369.187 287.507 377.366 277.826 385.546 274.822 393.726 278.662 401.906 289.01 410.085 305.37 418.265 326.402 426.445 350.356 434.624 375.227 442.804 401.185 450.984 426.727 459.164 449.347 467.343 467.209 475.523 479.392 483.703 486.986 491.882 490.074 500.062 490.41 508.242 488.738 516.422 486.569 524.601 484.482 532.781 482.482 540.961 480.563 549.14 477.557 557.32 473.965 565.5 468.289 573.68 461.447 581.859 452.264 590.039 441.666 598.219 429.647 606.398 416.71 614.578 404.524 622.758 393.924 630.938 385.577 639.117 379.483 647.297 376.814 655.477 377.23 663.656 380.403 671.836 385.663 680.016 392.007 688.196 399.35 696.375 407.111 704.555 414.956 712.735 422.467 720.914 429.314 729.094 435.658 737.274 440.667 745.454 444.09 753.633 445.844 761.813 445.676 769.993 443.922 778.172 440.748 786.352 436.907 794.532 432.817 802.712 429.31 810.891 426.473 819.071 424.303 827.251 423.47 835.43 422.719 843.61 422.635 851.79 422.219 859.97 421.551 868.149 421.049 876.329 420.715 884.509 420.547 892.689 420.546 900.868 421.135 909.048 421.554 917.228 422.471 925.407 423.392 933.587 423.81 941.767 423.724 949.946 423.223 958.126 422.053 966.306 420.046 974.486 416.793 982.665 411.704 990.845 405.191 999.025 396.177 1007.2 383.659 1015.38 367.715 1023.56 348.436 1031.74 326.985 1039.92 305.367 1048.1 285.838 1056.28 270.985 1064.46 263.222 1072.64 263.804 1080.82 272.9 1089 290.425 1097.18 314.213 1105.36 341.672 1113.54 370.801 1121.72 399.598 1129.9 426.724 1138.08 449.931 1146.26 468.544 1154.44 482.148 1162.62 491.329 1170.8 496.17 1178.98 497.255 1187.16 494.918 1195.34 490.41 1203.52 485.317 1211.7 479.891 1219.88 474.801 1228.06 469.96 1236.24 465.37 1244.42 460.363 1252.6 454.768 1260.78 448.093 1268.96 439.494 1277.14 429.812 1285.31 419.546 1293.49 409.618 1301.67 400.939 1309.85 393.596 1318.03 388.253 1326.21 384.912 1334.39 383.745 1342.57 384.578 1350.75 387.246 1358.93 391.419 1367.11 396.927 1375.29 403.44 1383.47 410.117 1391.65 416.793 1399.83 422.968 1408.01 428.143 1416.19 432.651 1424.37 436.575 1432.55 439.329 1432.7 439.363" stroke="#000000" stroke-width="1.64914" stroke-linejoin="bevel" stroke-miterlimit="1" stroke-dasharray="6.59654 6.59654" fill="none" fill-rule="evenodd" transform="matrix(1.01825 0 0 1 -172.121 -58.9076)"/><path d="M213.772 470.001 221.952 471.061 230.131 471.532 238.311 471.347 246.491 470.348 254.671 468.707 262.85 466.32 271.03 463.084 279.21 458.296 287.389 451.49 295.569 442.077 303.749 429.988 311.929 415.44 320.108 399.69 328.288 384.814 336.468 373.754 344.648 369.417 352.827 373.376 361.007 386.286 369.187 407.372 377.366 434.988 385.546 466.375 393.726 498.312 401.906 527.43 410.085 552.175 418.265 571.569 426.445 584.405 434.624 589.751 442.804 587.231 450.984 577.728 459.164 562.5 467.343 543.471 475.523 522.443 483.703 502.094 491.882 484.78 500.062 471.693 508.242 462.937 516.422 457.355 524.601 454.044 532.781 451.248 540.961 448.103 549.14 443.518 557.32 437.436 565.5 430.139 573.68 422.224 581.859 414.972 590.039 409.383 598.219 406.677 606.398 407.153 614.578 411.551 622.758 419.555 630.938 430.662 639.117 443.751 647.297 457.258 655.477 470.152 663.656 481.548 671.836 490.842 680.016 497.474 688.196 501.522 696.375 503.333 704.555 503.133 712.735 501.122 720.914 497.352 729.094 491.994 737.274 485.337 745.454 477.762 753.633 469.866 761.813 462.276 769.993 455.954 778.172 451.422 786.352 448.91 794.532 448.651 802.712 450.047 810.891 452.68 819.071 455.648 827.251 458.316 835.43 460.351 843.61 461.751 851.79 462.592 859.97 462.993 868.149 463.569 876.329 464.166 884.509 465.159 892.689 466.309 900.868 467.204 909.048 467.644 917.228 467.517 925.407 466.672 933.587 464.976 941.767 462.425 949.946 458.632 958.126 453.801 966.306 447.704 974.486 439.753 982.665 429.654 990.845 417.447 999.025 403.733 1007.2 389.89 1015.38 377.861 1023.56 369.948 1031.74 368.92 1039.92 376.753 1048.1 394.067 1056.28 420.413 1064.46 453.55 1072.64 489.974 1080.82 525.839 1089 557.427 1097.18 581.913 1105.36 597.315 1113.54 602.953 1121.72 599.227 1129.9 587.921 1138.08 571.023 1146.26 550.525 1154.44 528.305 1162.62 506.248 1170.8 486.375 1178.98 469.694 1187.16 456.829 1195.34 447.751 1203.52 442.221 1211.7 439.382 1219.88 438.226 1228.06 437.437 1236.24 435.745 1244.42 432.867 1252.6 428.857 1260.78 424.416 1268.96 420.534 1277.14 418.144 1285.31 418.019 1293.49 420.641 1301.67 426.105 1309.85 433.773 1318.03 442.975 1326.21 452.885 1334.39 462.841 1342.57 472.382 1350.75 480.806 1358.93 487.754 1367.11 492.867 1375.29 495.909 1383.47 496.968 1391.65 496.328 1399.83 494.129 1408.01 490.797 1416.19 486.832 1424.37 482.458 1432.55 477.919 1432.7 477.835" stroke="#000000" stroke-width="1.64914" stroke-linejoin="bevel" stroke-miterlimit="1" stroke-dasharray="1.64914 1.64914" fill="none" fill-rule="evenodd" transform="matrix(1.01825 0 0 1 -172.121 -58.9076)"/><path d="M213.772 471.424 221.952 468.527 230.131 465.376 238.311 462.057 246.491 458.372 254.671 454.001 262.85 448.524 271.03 441.687 279.21 433.447 287.389 424.241 295.569 415.271 303.749 408.515 311.929 406.474 320.108 411.268 328.288 424.252 336.468 445.422 344.648 473.359 352.827 505.115 361.007 536.716 369.187 563.802 377.366 582.984 385.546 592.38 393.726 591.311 401.906 580.25 410.085 560.553 418.265 534.483 426.445 504.681 434.624 473.876 442.804 444.375 450.984 418.653 459.164 399.145 467.343 387.515 475.523 384.225 483.703 388.275 491.882 397.845 500.062 410.32 508.242 423.076 516.422 433.587 524.601 440.332 532.781 442.995 540.961 442.267 549.14 439.676 557.32 436.902 565.5 435.773 573.68 437.463 581.859 442.824 590.039 451.83 598.219 463.87 606.398 477.719 614.578 491.635 622.758 503.977 630.938 513.32 639.117 518.787 647.297 519.841 655.477 516.729 663.656 510.207 671.836 501.365 680.016 491.318 688.196 480.879 696.375 470.676 704.555 461.152 712.735 452.618 720.914 445.254 729.094 439.287 737.274 435.158 745.454 433.285 753.633 433.937 761.813 437.171 769.993 442.601 778.172 449.565 786.352 457.06 794.532 464.021 802.712 469.523 810.891 473.101 819.071 474.674 827.251 474.481 835.43 473.243 843.61 471.562 851.79 470.121 859.97 469.237 868.149 468.853 876.329 468.712 884.509 468.507 892.689 467.908 900.868 466.601 909.048 464.55 917.228 461.618 925.407 457.98 933.587 453.761 941.767 448.845 949.946 443.071 958.126 436.381 966.306 428.97 974.486 421.487 982.665 415.14 990.845 411.503 999.025 412.693 1007.2 420.73 1015.38 436.791 1023.56 460.886 1031.74 491.431 1039.92 525.252 1048.1 558.116 1056.28 585.409 1064.46 603.021 1072.64 608.214 1080.82 600.092 1089 579.628 1097.18 549.685 1105.36 514.198 1113.54 477.325 1121.72 442.84 1129.9 413.727 1138.08 392.131 1146.26 378.988 1154.44 374.181 1162.62 376.656 1170.8 384.948 1178.98 397.223 1187.16 411.457 1195.34 425.535 1203.52 437.521 1211.7 446.282 1219.88 451.374 1228.06 453.171 1236.24 452.69 1244.42 451.412 1252.6 450.883 1260.78 452.436 1268.96 456.825 1277.14 463.893 1285.31 472.91 1293.49 482.684 1301.67 491.946 1309.85 499.636 1318.03 504.922 1326.21 507.373 1334.39 506.934 1342.57 503.881 1350.75 498.653 1358.93 491.847 1367.11 484.035 1375.29 475.841 1383.47 467.957 1391.65 460.886 1399.83 455.007 1408.01 450.458 1416.19 447.127 1424.37 444.855 1432.55 443.52 1432.7 443.51" stroke="#000000" stroke-width="1.64914" stroke-linejoin="bevel" stroke-miterlimit="1" stroke-dasharray="6.59654 1.64914 3.29827 1.64914" fill="none" fill-rule="evenodd" transform="matrix(1.01825 0 0 1 -172.121 -58.9076)"/><path d="M1421.01 212.739 1421.01 71.4626 1305.57 71.4626 1305.57 212.739Z" fill="#FFFFFF" transform="matrix(1.01825 0 0 1 -172.121 -58.9076)"/><text font-family="Arial,Arial_MSFontService,sans-serif" font-weight="400" font-size="50" transform="matrix(0.559747 0 0 0.549712 1196.83 42)">PPG</text><path d="M1308.87 90.2075 1341.93 90.2075" stroke="#000000" stroke-width="2.19885" stroke-linejoin="round" stroke-miterlimit="10" fill="none" transform="matrix(1.01825 0 0 1 -172.121 -58.9076)"/><text font-family="Arial,Arial_MSFontService,sans-serif" font-weight="400" font-size="50" transform="matrix(0.559747 0 0 0.549712 1196.83 77)">PPG<tspan font-size="50" x="105" y="0">'</tspan></text><path d="M1308.87 124.803 1341.93 124.803" stroke="#000000" stroke-width="1.64914" stroke-linejoin="bevel" stroke-miterlimit="1" stroke-dasharray="6.59654 6.59654" fill="none" transform="matrix(1.01825 0 0 1 -172.121 -58.9076)"/><text font-family="Arial,Arial_MSFontService,sans-serif" font-weight="400" font-size="50" transform="matrix(0.559747 0 0 0.549712 1196.83 111)">PPG<tspan font-size="50" x="105" y="0">"</tspan></text><path d="M1308.87 159.398 1341.93 159.398" stroke="#000000" stroke-width="1.64914" stroke-linejoin="bevel" stroke-miterlimit="1" stroke-dasharray="1.64914 1.64914" fill="none" transform="matrix(1.01825 0 0 1 -172.121 -58.9076)"/><text font-family="Arial,Arial_MSFontService,sans-serif" font-weight="400" font-size="50" transform="matrix(0.559747 0 0 0.549712 1196.83 146)">PPG<tspan font-size="50" x="105" y="0">'</tspan><tspan font-size="50" x="115" y="0">"</tspan></text><path d="M1308.87 193.994 1341.93 193.994" stroke="#000000" stroke-width="1.64914" stroke-linejoin="bevel" stroke-miterlimit="1" stroke-dasharray="6.59654 1.64914 3.29827 1.64914" fill="none" transform="matrix(1.01825 0 0 1 -172.121 -58.9076)"/><path d="M1305.57 212.739 1305.57 71.4626 1421.01 71.4626 1421.01 212.739Z" stroke="#262626" stroke-width="0.549712" stroke-miterlimit="10" fill="none" fill-rule="evenodd" transform="matrix(1.01825 0 0 1 -172.121 -58.9076)"/><text font-family="Calibri,Calibri_MSFontService,sans-serif" font-weight="700" font-size="19" transform="translate(166.455 652)">Systolic Peak<tspan font-size="19" x="14.92" y="23">Time (</tspan><tspan font-size="19" x="63.2533" y="23">T</tspan><tspan font-size="12" x="71.18" y="27">sp</tspan><tspan font-size="19" x="82.8467" y="23">)</tspan><tspan font-size="40" x="699.101" y="-306">a</tspan><tspan font-size="40" x="785.344" y="-124">b</tspan><tspan font-size="40" x="886.331" y="-277">c</tspan><tspan font-size="40" x="912.251" y="-285">d</tspan><tspan font-size="40" x="726.213" y="-463">u</tspan><tspan font-size="40" x="852.403" y="-184">v</tspan></text><path d="M286.166 72.0001 966.363 72.0002 966.363 73.0002 286.166 73.0001ZM287.5 76.5001 279.5 72.5001 287.5 68.5001ZM965.029 68.5002 973.029 72.5002 965.029 76.5002Z"/><path d="M973.5 67.5001 973.5 86.7001" stroke="#000000" stroke-width="0.666667" stroke-miterlimit="8" stroke-dasharray="0.666667 0.666667" fill="none" fill-rule="evenodd"/><path d="M156.5 563.5 156.5 645.1" stroke="#000000" stroke-width="0.666667" stroke-miterlimit="8" stroke-dasharray="0.666667 0.666667" fill="none" fill-rule="evenodd"/><path d="M163.167 637 271.006 637 271.006 638 163.167 638ZM164.5 641.5 156.5 637.5 164.5 633.5ZM269.673 633.5 277.673 637.5 269.673 641.5Z"/><path d="M453.167 590.001 830.08 590.082 830.08 591.082 453.167 591.001ZM454.499 594.502 446.5 590.5 454.501 586.502ZM828.746 586.582 836.745 590.583 828.745 594.582Z"/><path d="M0.508322 6.66519 1.04695 438.068 0.0469526 438.069-0.491677 6.66644ZM-3.99001 8.00499 0 0 4.00998 7.995ZM4.54528 436.73 0.555276 444.735-3.45471 436.74Z" transform="matrix(1 0 0 -1 279.5 565.235)"/><path d="M227.168 339.015 272.28 339.113 272.277 340.113 227.166 340.015ZM228.491 343.518 220.5 339.5 228.509 335.518ZM270.954 335.61 278.945 339.628 270.936 343.61Z"/><path d="M6.6681-0.479947 81.1943-0.255797 81.1913 0.744199 6.66509 0.520049ZM7.98793 4.02404 0 0 8.01199-3.97592ZM79.8714-3.75979 87.8593 0.264252 79.8473 4.24017Z" transform="matrix(1 0 0 -1 279.5 339.764)"/><text font-family="Calibri,Calibri_MSFontService,sans-serif" font-weight="700" font-size="19" transform="translate(525.194 88)">Peak<tspan font-size="19" x="37.2" y="0">-</tspan><tspan font-size="19" x="42.8666" y="0">to</tspan><tspan font-size="19" x="59.1866" y="0">-</tspan><tspan font-size="19" x="64.8533" y="0">Peak Interval (</tspan><tspan font-size="21" x="175.88" y="0">T</tspan><tspan font-size="14" x="185.287" y="4">pp</tspan><tspan font-size="19" x="200.62" y="0">)</tspan><tspan font-size="19" x="26.6653" y="519">Diastolic Time (</tspan><tspan font-size="21" x="145.612" y="519">T</tspan><tspan font-size="14" x="154.572" y="523">dia</tspan><tspan font-size="19" x="172.739" y="519">)</tspan><tspan fill="#404040" font-size="19" x="-435.562" y="100">Systolic Width </tspan><tspan fill="#404040" font-size="19" x="-434.282" y="125">at 50% (</tspan><tspan font-size="21" x="-371.956" y="125">T</tspan><tspan font-size="14" x="-362.876" y="129">sw50</tspan><tspan fill="#404040" font-size="19" x="-332.276" y="125">)</tspan><tspan fill="#404040" font-size="19" x="-168.726" y="180">Diastolic Width </tspan><tspan fill="#404040" font-size="19" x="-164.232" y="205">at 50% (</tspan><tspan font-size="21" x="-101.906" y="205">T</tspan><tspan font-size="14" x="-92.9456" y="209">dw50</tspan><tspan fill="#404040" font-size="19" x="-60.2789" y="205">)</tspan><tspan fill="#404040" font-size="19" x="-166.508" y="83">Systolic Peak </tspan><tspan fill="#404040" font-size="19" x="-178.708" y="108">Amplitude (</tspan><tspan font-size="21" x="-87.0413" y="108">A</tspan><tspan font-size="14" x="-74.0413" y="112">sp</tspan><tspan fill="#404040" font-size="19" x="-60.708" y="108">)</tspan></text><path d="M163.166 565 829.224 565 829.224 566 163.166 566ZM164.5 569.5 156.5 565.5 164.5 561.5ZM827.89 561.5 835.89 565.5 827.89 569.5Z"/><text font-family="Calibri,Calibri_MSFontService,sans-serif" font-weight="700" font-size="19" transform="translate(397.662 581)">Pulse Interval (<tspan font-size="21" x="115.327" y="0">T</tspan><tspan font-size="14" x="124.733" y="4">pi</tspan><tspan font-size="19" x="135.9" y="0">)</tspan></text><path d="M0 0 58.8273 69.3028" stroke="#000000" stroke-width="0.666667" stroke-miterlimit="8" stroke-dasharray="0.666667 0.666667" fill="none" fill-rule="evenodd" transform="matrix(-1 0 0 1 337.327 183.5)"/><path d="M147.5 222.5 258.246 340.259" stroke="#000000" stroke-width="0.666667" stroke-miterlimit="8" stroke-dasharray="0.666667 0.666667" fill="none" fill-rule="evenodd"/><path d="M0 0 42.7407 59.3237" stroke="#000000" stroke-width="0.666667" stroke-miterlimit="8" stroke-dasharray="0.666667 0.666667" fill="none" fill-rule="evenodd" transform="matrix(-1 0 0 1 360.241 278.5)"/><text font-family="Calibri,Calibri_MSFontService,sans-serif" font-weight="700" font-size="40" transform="translate(1111.84 342)">e</text><path d="M838.5 565.5 838.5 599.1" stroke="#000000" stroke-width="0.666667" stroke-miterlimit="8" stroke-dasharray="0.666667 0.666667" fill="none" fill-rule="evenodd"/><path d="M869.5 310.5C869.5 307.739 871.963 305.5 875 305.5 878.038 305.5 880.5 307.739 880.5 310.5 880.5 313.261 878.038 315.5 875 315.5 871.963 315.5 869.5 313.261 869.5 310.5Z" stroke="#000000" stroke-width="3" stroke-miterlimit="8" fill="#18D82A" fill-rule="evenodd"/><path d="M957.5 543C957.5 539.963 959.963 537.5 963 537.5 966.038 537.5 968.5 539.963 968.5 543 968.5 546.038 966.038 548.5 963 548.5 959.963 548.5 957.5 546.038 957.5 543Z" stroke="#000000" stroke-width="3" stroke-miterlimit="8" fill="#18D82A" fill-rule="evenodd"/><path d="M1076.5 378C1076.5 374.962 1078.96 372.5 1082 372.5 1085.04 372.5 1087.5 374.962 1087.5 378 1087.5 381.038 1085.04 383.5 1082 383.5 1078.96 383.5 1076.5 381.038 1076.5 378Z" stroke="#000000" stroke-width="3" stroke-miterlimit="8" fill="#18D82A" fill-rule="evenodd"/><path d="M1129.5 359C1129.5 355.962 1131.96 353.5 1135 353.5 1138.04 353.5 1140.5 355.962 1140.5 359 1140.5 362.038 1138.04 364.5 1135 364.5 1131.96 364.5 1129.5 362.038 1129.5 359Z" stroke="#000000" stroke-width="3" stroke-miterlimit="8" fill="#18D82A" fill-rule="evenodd"/><path d="M909.5 203C909.5 199.962 911.963 197.5 915 197.5 918.038 197.5 920.5 199.962 920.5 203 920.5 206.038 918.038 208.5 915 208.5 911.963 208.5 909.5 206.038 909.5 203Z" stroke="#000000" stroke-width="3" stroke-miterlimit="8" fill="#00B0F0" fill-rule="evenodd"/><path d="M1019.5 437.5C1019.5 434.739 1021.96 432.5 1025 432.5 1028.04 432.5 1030.5 434.739 1030.5 437.5 1030.5 440.261 1028.04 442.5 1025 442.5 1021.96 442.5 1019.5 440.261 1019.5 437.5Z" stroke="#000000" stroke-width="3" stroke-miterlimit="8" fill="#00B0F0" fill-rule="evenodd"/><path d="M1236.5 437.5C1236.5 434.739 1238.74 432.5 1241.5 432.5 1244.26 432.5 1246.5 434.739 1246.5 437.5 1246.5 440.261 1244.26 442.5 1241.5 442.5 1238.74 442.5 1236.5 440.261 1236.5 437.5Z" stroke="#000000" stroke-width="3" stroke-miterlimit="8" fill="#18D82A" fill-rule="evenodd"/><path d="M1184.5 324.5C1184.5 321.739 1186.96 319.5 1190 319.5 1193.04 319.5 1195.5 321.739 1195.5 324.5 1195.5 327.261 1193.04 329.5 1190 329.5 1186.96 329.5 1184.5 327.261 1184.5 324.5Z" stroke="#000000" stroke-width="3" stroke-miterlimit="8" fill="#00B0F0" fill-rule="evenodd"/><text font-family="Calibri,Calibri_MSFontService,sans-serif" font-weight="700" font-size="40" transform="translate(1174.39 355)">w<tspan font-size="40" x="60.2219" y="122">f</tspan></text><path d="M274.5 117.5C274.5 114.739 276.962 112.5 280 112.5 283.038 112.5 285.5 114.739 285.5 117.5 285.5 120.261 283.038 122.5 280 122.5 276.962 122.5 274.5 120.261 274.5 117.5Z" stroke="#000000" stroke-width="3" stroke-miterlimit="8" fill="#FF0000" fill-rule="evenodd"/><text font-family="Calibri,Calibri_MSFontService,sans-serif" font-weight="700" font-size="40" transform="translate(229.524 101)">sp<tspan font-size="40" x="-101.54" y="442">on</tspan><tspan font-size="40" x="576.481" y="447">off</tspan><tspan font-size="40" x="262.066" y="285">dp</tspan><tspan font-size="40" x="194.581" y="369">dn</tspan></text><path d="M540 558.322 540 405.167 541 405.167 541 558.322ZM544.5 556.988 540.5 564.988 536.5 556.988ZM536.5 406.5 540.5 398.5 544.5 406.5Z"/><path d="M150.5 556.5C150.5 553.739 152.962 551.5 156 551.5 159.038 551.5 161.5 553.739 161.5 556.5 161.5 559.261 159.038 561.5 156 561.5 152.962 561.5 150.5 559.261 150.5 556.5Z" stroke="#000000" stroke-width="3" stroke-miterlimit="8" fill="#FF0000" fill-rule="evenodd"/><path d="M439.5 487C439.5 483.962 441.739 481.5 444.5 481.5 447.261 481.5 449.5 483.962 449.5 487 449.5 490.038 447.261 492.5 444.5 492.5 441.739 492.5 439.5 490.038 439.5 487Z" stroke="#000000" stroke-width="3" stroke-miterlimit="8" fill="#FF0000" fill-rule="evenodd"/><path d="M535.5 395C535.5 391.962 537.963 389.5 541 389.5 544.038 389.5 546.5 391.962 546.5 395 546.5 398.038 544.038 400.5 541 400.5 537.963 400.5 535.5 398.038 535.5 395Z" stroke="#000000" stroke-width="3" stroke-miterlimit="8" fill="#FF0000" fill-rule="evenodd"/><path d="M831.5 560.5C831.5 557.739 833.963 555.5 837 555.5 840.038 555.5 842.5 557.739 842.5 560.5 842.5 563.261 840.038 565.5 837 565.5 833.963 565.5 831.5 563.261 831.5 560.5Z" stroke="#000000" stroke-width="3" stroke-miterlimit="8" fill="#FF0000" fill-rule="evenodd"/><path d="M286.167 100 533.33 100 533.33 101 286.167 101ZM287.5 104.5 279.5 100.5 287.5 96.5001ZM531.997 96.5002 539.997 100.5 531.997 104.5Z"/><path d="M540.5 91.5001 540.5 389.1" stroke="#000000" stroke-width="0.666667" stroke-miterlimit="8" stroke-dasharray="0.666667 0.666667" fill="none" fill-rule="evenodd"/><text font-family="Calibri,Calibri_MSFontService,sans-serif" font-weight="700" font-size="19" transform="translate(334.505 120)">Time Delay (<tspan font-size="19" x="95.9933" y="0">delta</tspan><tspan font-size="21" x="135.48" y="0">T</tspan>)</text><path d="M999.5 314C999.5 310.962 1001.74 308.5 1004.5 308.5 1007.26 308.5 1009.5 310.962 1009.5 314 1009.5 317.038 1007.26 319.5 1004.5 319.5 1001.74 319.5 999.5 317.038 999.5 314Z" stroke="#000000" stroke-width="3" stroke-miterlimit="8" fill="#F44ADC" fill-rule="evenodd"/><path d="M1061.5 392C1061.5 388.962 1063.96 386.5 1067 386.5 1070.04 386.5 1072.5 388.962 1072.5 392 1072.5 395.038 1070.04 397.5 1067 397.5 1063.96 397.5 1061.5 395.038 1061.5 392Z" stroke="#000000" stroke-width="3" stroke-miterlimit="8" fill="#F44ADC" fill-rule="evenodd"/><text font-family="Calibri,Calibri_MSFontService,sans-serif" font-weight="700" font-size="40" transform="translate(986.213 294)">p<tspan font-size="27" x="21.5" y="9">1</tspan><tspan font-size="40" x="66.5723" y="125">p</tspan><tspan font-size="27" x="88.0723" y="134">2</tspan></text><path d="M280.5 69.5001 280.5 112.671" stroke="#000000" stroke-width="0.666667" stroke-miterlimit="8" stroke-dasharray="0.666667 0.666667" fill="none" fill-rule="evenodd"/><path d="M279.5 563.5 279.5 645.1" stroke="#000000" stroke-width="0.666667" stroke-miterlimit="8" stroke-dasharray="0.666667 0.666667" fill="none" fill-rule="evenodd"/><path d="M445 557.793 445 498.167 446 498.167 446 557.793ZM449.5 556.46 445.5 564.46 441.5 556.46ZM441.5 499.5 445.5 491.5 449.5 499.5Z"/><text fill="#404040" font-family="Calibri,Calibri_MSFontService,sans-serif" font-weight="700" font-size="19" transform="translate(553.067 514)">Diastolic Peak <tspan font-size="19" x="-9.00671" y="25">Amplitude (</tspan><tspan fill="#000000" font-size="21" x="82.66" y="25">A</tspan><tspan fill="#000000" font-size="14" x="95.66" y="29">dp</tspan><tspan font-size="19" x="110.993" y="25">)</tspan><tspan font-size="19" x="-230.43" y="1">Dicrotic Notch </tspan><tspan font-size="19" x="-238.163" y="26">Amplitude (</tspan><tspan fill="#000000" font-size="21" x="-146.497" y="26">A</tspan><tspan fill="#000000" font-size="14" x="-133.497" y="30">dn</tspan><tspan font-size="19" x="-118.163" y="26">)</tspan></text><path d="M163.167 590 438.77 590 438.77 591 163.167 591ZM164.5 594.5 156.5 590.5 164.5 586.5ZM437.437 586.5 445.437 590.5 437.437 594.5Z"/><path d="M540.5 567.5 540.5 620.3" stroke="#000000" stroke-width="0.666667" stroke-miterlimit="8" stroke-dasharray="0.666667 0.666667" fill="none" fill-rule="evenodd"/><path d="M445.5 567.5 445.5 596" stroke="#000000" stroke-width="0.666667" stroke-miterlimit="8" stroke-dasharray="0.666667 0.666667" fill="none" fill-rule="evenodd"/><path d="M163.165 614 533.834 614 533.834 615 163.165 615ZM164.5 618.5 156.5 614.5 164.5 610.5ZM532.5 610.5 540.5 614.5 532.5 618.5Z"/><text font-family="Calibri,Calibri_MSFontService,sans-serif" font-weight="700" font-size="19" transform="translate(212.171 607)">Systolic Time (<tspan font-size="21" x="110.56" y="0">T</tspan><tspan font-size="14" x="119.64" y="4">sys</tspan><tspan font-size="19" x="137.333" y="0">)</tspan><tspan font-size="19" x="52.8217" y="24">Diastolic Peak Time (</tspan><tspan font-size="21" x="213.135" y="24">T</tspan><tspan font-size="14" x="222.095" y="28">dp</tspan><tspan font-size="19" x="237.428" y="24">)</tspan><tspan font-size="40" x="708.203" y="-506">sp</tspan></text><path d="M968.5 94.0001C968.5 90.9625 970.963 88.5001 974 88.5001 977.038 88.5001 979.5 90.9625 979.5 94.0001 979.5 97.0376 977.038 99.5001 974 99.5001 970.963 99.5001 968.5 97.0376 968.5 94.0001Z" stroke="#000000" stroke-width="3" stroke-miterlimit="8" fill="#FF0000" fill-rule="evenodd"/></g></svg>